<?xml version="1.0" encoding="UTF-8"?>
<!-- Generated by Pixelmator Pro 3.5.6 -->
<svg width="1080" height="290" viewBox="0 0 1080 290" xmlns="http://www.w3.org/2000/svg">
    <g id="borg">
        <g id="borg2">
            <g id="Group">
                <g id="g1">
                    <path id="Path" fill="#f4faff" stroke="none" d="M 192.548843 147.412415 C 184.494247 141.37149 175.231766 135.733414 165.163559 132.108749 C 178.05069 118.013245 186.10527 99.487793 186.10527 79.351349 C 186.10527 57.201233 176.439667 37.467453 161.941528 22.969269 C 147.040741 8.873779 126.501183 0.013672 104.351082 0.013672 C 81.79834 0.013672 61.661896 8.873779 46.761112 22.969269 C 32.26297 37.467453 23 57.201233 23 79.351349 L 23 285.951324 L 122.071251 285.951324 C 149.457031 285.951324 174.828659 276.688568 192.548843 262.190186 C 210.671646 247.692062 221.948257 227.152954 221.948257 204.599991 C 221.948257 182.449921 210.671646 161.910812 192.548843 147.412415 Z M 70.924858 47.535629 C 79.382072 39.481064 91.061302 34.245636 104.351082 34.245636 C 117.238708 34.245636 128.917923 39.481064 137.777786 47.535629 C 146.235001 55.993103 151.470673 66.866592 151.470673 79.351349 C 151.470673 91.433212 146.235001 102.70961 137.777786 110.764175 C 129.320572 118.818756 117.641327 124.054169 104.351082 124.054169 L 57.634602 124.054169 L 57.634602 78.948456 C 57.634602 66.866592 62.467644 55.59021 70.924858 47.535629 Z M 162.74678 238.026459 C 152.275925 246.483917 138.18042 251.719345 122.071251 251.719345 L 57.634602 251.719345 L 57.634602 157.88353 L 122.071251 157.88353 C 138.18042 157.88353 152.275925 163.118958 162.74678 171.576141 C 173.218124 180.0336 179.661697 191.712616 179.661697 204.599991 C 179.661697 217.889984 173.218124 229.569229 162.74678 238.026459 Z"/>
                </g>
                <g id="g2">
                    <path id="path1" fill="#f4faff" stroke="none" d="M 247.722992 144.996155 C 247.722992 225.139313 312.562286 289.978607 392.705475 289.978607 C 472.848175 289.978607 537.687927 225.139313 537.687927 144.996155 C 537.687927 64.852997 472.848175 0.013672 392.705475 0.013672 C 312.562286 0.013672 247.722992 64.852997 247.722992 144.996155 Z M 314.978577 222.722778 C 294.842102 202.989243 282.760223 175.200806 282.760223 144.996155 C 282.760223 114.791458 294.842102 87.003036 314.978577 67.269485 C 334.712402 47.133057 362.500793 35.051193 392.705475 35.051193 C 422.910126 35.051193 450.698059 47.133057 470.431854 67.269485 C 490.568329 87.003036 502.650208 114.791458 502.650208 144.996155 C 502.650208 175.200806 490.568329 202.989243 470.431854 222.722778 C 450.698059 242.859253 422.910126 254.941116 392.705475 254.941116 C 362.500793 254.941116 334.712402 242.859253 314.978577 222.722778 Z"/>
                </g>
                <g id="g3">
                    <path id="path2" fill="#f4faff" stroke="none" d="M 737.441406 285.951324 L 737.441406 205.808121 C 737.441406 183.658051 728.178467 163.521576 713.27771 149.426071 C 710.86145 147.009796 708.444641 144.996155 706.028381 142.982513 C 708.444641 140.968872 710.86145 138.955185 713.27771 136.538925 C 728.178467 122.040527 737.441406 101.904053 737.441406 80.15683 C 737.441406 58.00679 728.178467 37.870346 713.27771 23.371918 C 698.376465 8.873779 677.837341 0.013672 655.687256 0.013672 C 633.134521 0.013672 612.595459 8.873779 597.694214 23.371918 C 583.195984 37.870346 573.933533 57.603897 573.933533 79.754013 L 573.933533 285.951324 L 608.568176 285.951324 L 608.568176 145.398773 C 621.85791 154.661758 637.967041 159.897171 655.687256 159.897171 L 656.089905 159.897171 C 668.977478 160.299789 680.253601 165.132599 688.711304 173.589783 C 697.571106 182.047256 702.806885 193.323639 702.806885 205.808121 L 702.403748 285.951324 L 737.441406 285.951324 Z M 622.261047 112.375198 C 613.400696 103.91774 608.568176 92.641342 608.568176 80.15683 C 608.568176 67.269485 613.400696 55.993103 622.261047 47.535629 C 630.718201 39.078476 642.397461 34.245636 655.687256 34.245636 C 668.57489 34.245636 680.253601 39.078476 689.113953 47.535629 C 697.571106 55.993103 702.806885 67.269485 702.806885 80.15683 C 702.806885 92.641342 697.571106 103.91774 689.113953 112.375198 C 680.253601 120.429779 668.977478 125.665192 656.089905 125.665192 L 655.687256 125.665192 C 642.397461 125.665192 630.718201 120.832397 622.261047 112.375198 Z"/>
                </g>
                <g id="g4">
                    <path id="path3" fill="#f4faff" stroke="none" d="M 911.017578 144.996155 L 911.017578 179.630768 L 1015.727112 179.630768 C 1010.088806 196.142792 1000.826355 211.043823 988.744507 223.125671 C 969.01062 242.859253 941.222168 255.344009 910.614929 255.344009 C 880.410217 255.344009 852.621826 242.859253 832.888 223.125671 C 812.751587 202.989243 800.26709 175.60347 800.26709 144.996155 C 800.26709 114.38884 812.751587 87.003036 832.888 66.866592 C 852.621826 47.133057 880.410217 34.6483 910.614929 34.6483 C 941.222168 34.6483 969.01062 47.133057 988.744507 66.866592 L 1013.310791 42.300217 C 987.133484 16.122803 950.887817 0.013672 910.614929 0.013672 C 870.744629 0.013672 834.499023 16.122803 808.321655 42.300217 C 782.144226 68.477615 765.632446 105.12587 765.632446 144.996155 C 765.632446 184.866409 782.144226 221.514648 808.321655 247.692062 C 834.499023 273.869415 870.744629 289.978607 910.614929 289.978607 L 911.017578 289.978607 C 950.887817 289.978607 987.133484 273.869415 1013.310791 247.692062 C 1039.488159 221.514648 1056 184.866409 1056 144.996155 L 911.017578 144.996155 Z"/>
                </g>
            </g>
        </g>
    </g>
</svg>
