<?xml version="1.0" encoding="UTF-8" standalone="no"?>
<!DOCTYPE svg PUBLIC "-//W3C//DTD SVG 1.1//EN" "http://www.w3.org/Graphics/SVG/1.1/DTD/svg11.dtd">
<svg width="100%" height="100%" viewBox="0 0 1920 1920" version="1.1" xmlns="http://www.w3.org/2000/svg" xmlns:xlink="http://www.w3.org/1999/xlink" xml:space="preserve" xmlns:serif="http://www.serif.com/" style="fill-rule:evenodd;clip-rule:evenodd;stroke-linejoin:round;stroke-miterlimit:2;">
    <g transform="matrix(1,0,0,1,-4023,-4055)">
        <g id="borg_2" transform="matrix(1,0,0,1,4023,4055)">
            <rect x="0" y="0" width="1920" height="1920" style="fill:none;"/>
            <g transform="matrix(1.1804,0,0,1.1804,-319.301,-173.18)">
                <g transform="matrix(1.33764,0,0,1.33764,-5257.97,-2678.39)">
                    <path d="M4396.4,2722.4C4388.4,2716.4 4379.2,2710.8 4369.2,2707.2C4382,2693.2 4390,2674.8 4390,2654.8C4390,2632.8 4380.4,2613.2 4366,2598.8C4351.2,2584.8 4330.8,2576 4308.8,2576C4286.4,2576 4266.4,2584.8 4251.6,2598.8C4237.2,2613.2 4228,2632.8 4228,2654.8L4228,2860L4326.4,2860C4353.6,2860 4378.8,2850.8 4396.4,2836.4C4414.4,2822 4425.6,2801.6 4425.6,2779.2C4425.6,2757.2 4414.4,2736.8 4396.4,2722.4ZM4275.6,2623.2C4284,2615.2 4295.6,2610 4308.8,2610C4321.6,2610 4333.2,2615.2 4342,2623.2C4350.4,2631.6 4355.6,2642.4 4355.6,2654.8C4355.6,2666.8 4350.4,2678 4342,2686C4333.6,2694 4322,2699.2 4308.8,2699.2L4262.4,2699.2L4262.4,2654.4C4262.4,2642.4 4267.2,2631.2 4275.6,2623.2ZM4366.8,2812.4C4356.4,2820.8 4342.4,2826 4326.4,2826L4262.4,2826L4262.4,2732.8L4326.4,2732.8C4342.4,2732.8 4356.4,2738 4366.8,2746.4C4377.2,2754.8 4383.6,2766.4 4383.6,2779.2C4383.6,2792.4 4377.2,2804 4366.8,2812.4Z" style="fill:rgb(34,56,67);fill-rule:nonzero;"/>
                </g>
                <g transform="matrix(1.33764,0,0,1.33764,-5257.97,-2678.39)">
                    <path d="M4451.2,2720C4451.2,2799.6 4515.6,2864 4595.2,2864C4674.8,2864 4739.2,2799.6 4739.2,2720C4739.2,2640.4 4674.8,2576 4595.2,2576C4515.6,2576 4451.2,2640.4 4451.2,2720ZM4518,2797.2C4498,2777.6 4486,2750 4486,2720C4486,2690 4498,2662.4 4518,2642.8C4537.6,2622.8 4565.2,2610.8 4595.2,2610.8C4625.2,2610.8 4652.8,2622.8 4672.4,2642.8C4692.4,2662.4 4704.4,2690 4704.4,2720C4704.4,2750 4692.4,2777.6 4672.4,2797.2C4652.8,2817.2 4625.2,2829.2 4595.2,2829.2C4565.2,2829.2 4537.6,2817.2 4518,2797.2Z" style="fill:rgb(34,56,67);fill-rule:nonzero;"/>
                </g>
                <g transform="matrix(1.33764,0,0,1.33764,-5257.97,-2678.39)">
                    <path d="M4937.6,2860L4937.6,2780.4C4937.6,2758.4 4928.4,2738.4 4913.6,2724.4C4911.2,2722 4908.8,2720 4906.4,2718C4908.8,2716 4911.2,2714 4913.6,2711.6C4928.4,2697.2 4937.6,2677.2 4937.6,2655.6C4937.6,2633.6 4928.4,2613.6 4913.6,2599.2C4898.8,2584.8 4878.4,2576 4856.4,2576C4834,2576 4813.6,2584.8 4798.8,2599.2C4784.4,2613.6 4775.2,2633.2 4775.2,2655.2L4775.2,2860L4809.6,2860L4809.6,2720.4C4822.8,2729.6 4838.8,2734.8 4856.4,2734.8L4856.8,2734.8C4869.6,2735.2 4880.8,2740 4889.2,2748.4C4898,2756.8 4903.2,2768 4903.2,2780.4L4902.8,2860L4937.6,2860ZM4823.2,2687.6C4814.4,2679.2 4809.6,2668 4809.6,2655.6C4809.6,2642.8 4814.4,2631.6 4823.2,2623.2C4831.6,2614.8 4843.2,2610 4856.4,2610C4869.2,2610 4880.8,2614.8 4889.6,2623.2C4898,2631.6 4903.2,2642.8 4903.2,2655.6C4903.2,2668 4898,2679.2 4889.6,2687.6C4880.8,2695.6 4869.6,2700.8 4856.8,2700.8L4856.4,2700.8C4843.2,2700.8 4831.6,2696 4823.2,2687.6Z" style="fill:rgb(34,56,67);fill-rule:nonzero;"/>
                </g>
                <g transform="matrix(1.33764,0,0,1.33764,-5257.97,-2678.39)">
                    <path d="M5110,2720L5110,2754.4L5214,2754.4C5208.4,2770.8 5199.2,2785.6 5187.2,2797.6C5167.6,2817.2 5140,2829.6 5109.6,2829.6C5079.6,2829.6 5052,2817.2 5032.4,2797.6C5012.4,2777.6 5000,2750.4 5000,2720C5000,2689.6 5012.4,2662.4 5032.4,2642.4C5052,2622.8 5079.6,2610.4 5109.6,2610.4C5140,2610.4 5167.6,2622.8 5187.2,2642.4L5211.6,2618C5185.6,2592 5149.6,2576 5109.6,2576C5070,2576 5034,2592 5008,2618C4982,2644 4965.6,2680.4 4965.6,2720C4965.6,2759.6 4982,2796 5008,2822C5034,2848 5070,2864 5109.6,2864L5110,2864C5149.6,2864 5185.6,2848 5211.6,2822C5237.6,2796 5254,2759.6 5254,2720L5110,2720Z" style="fill:rgb(34,56,67);fill-rule:nonzero;"/>
                </g>
            </g>
        </g>
    </g>
</svg>
