<?xml version="1.0" encoding="UTF-8" standalone="no"?>
<!DOCTYPE svg PUBLIC "-//W3C//DTD SVG 1.1//EN" "http://www.w3.org/Graphics/SVG/1.1/DTD/svg11.dtd">
<svg width="100%" height="100%" viewBox="0 0 1920 1920" version="1.1" xmlns="http://www.w3.org/2000/svg" xmlns:xlink="http://www.w3.org/1999/xlink" xml:space="preserve" xmlns:serif="http://www.serif.com/" style="fill-rule:evenodd;clip-rule:evenodd;stroke-linejoin:round;stroke-miterlimit:2;">
    <g transform="matrix(1,0,0,1,-4023,-4055)">
        <g id="borg_2" transform="matrix(1,0,0,1,4023,4055)">
            <rect x="0" y="0" width="1920" height="1920" style="fill:none;"/>
            <g transform="matrix(1.04847,0,0,1.04847,-85.795,-46.5329)">
                <g transform="matrix(1.33764,0,0,1.33764,-5257.97,-2678.39)">
                    <path d="M4396.4,2722.4C4388.4,2716.4 4379.2,2710.8 4369.2,2707.2C4382,2693.2 4390,2674.8 4390,2654.8C4390,2632.8 4380.4,2613.2 4366,2598.8C4351.2,2584.8 4330.8,2576 4308.8,2576C4286.4,2576 4266.4,2584.8 4251.6,2598.8C4237.2,2613.2 4228,2632.8 4228,2654.8L4228,2860L4326.4,2860C4353.6,2860 4378.8,2850.8 4396.4,2836.4C4414.4,2822 4425.6,2801.6 4425.6,2779.2C4425.6,2757.2 4414.4,2736.8 4396.4,2722.4ZM4275.6,2623.2C4284,2615.2 4295.6,2610 4308.8,2610C4321.6,2610 4333.2,2615.2 4342,2623.2C4350.4,2631.6 4355.6,2642.4 4355.6,2654.8C4355.6,2666.8 4350.4,2678 4342,2686C4333.6,2694 4322,2699.2 4308.8,2699.2L4262.4,2699.2L4262.4,2654.4C4262.4,2642.4 4267.2,2631.2 4275.6,2623.2ZM4366.8,2812.4C4356.4,2820.8 4342.4,2826 4326.4,2826L4262.4,2826L4262.4,2732.8L4326.4,2732.8C4342.4,2732.8 4356.4,2738 4366.8,2746.4C4377.2,2754.8 4383.6,2766.4 4383.6,2779.2C4383.6,2792.4 4377.2,2804 4366.8,2812.4Z" style="fill:rgb(34,56,67);fill-rule:nonzero;"/>
                </g>
                <g transform="matrix(1.33764,0,0,1.33764,-5257.97,-2678.39)">
                    <path d="M4451.2,2720C4451.2,2799.6 4515.6,2864 4595.2,2864C4674.8,2864 4739.2,2799.6 4739.2,2720C4739.2,2640.4 4674.8,2576 4595.2,2576C4515.6,2576 4451.2,2640.4 4451.2,2720ZM4518,2797.2C4498,2777.6 4486,2750 4486,2720C4486,2690 4498,2662.4 4518,2642.8C4537.6,2622.8 4565.2,2610.8 4595.2,2610.8C4625.2,2610.8 4652.8,2622.8 4672.4,2642.8C4692.4,2662.4 4704.4,2690 4704.4,2720C4704.4,2750 4692.4,2777.6 4672.4,2797.2C4652.8,2817.2 4625.2,2829.2 4595.2,2829.2C4565.2,2829.2 4537.6,2817.2 4518,2797.2Z" style="fill:rgb(34,56,67);fill-rule:nonzero;"/>
                </g>
                <g transform="matrix(1.33764,0,0,1.33764,-5257.97,-2678.39)">
                    <path d="M4937.6,2860L4937.6,2780.4C4937.6,2758.4 4928.4,2738.4 4913.6,2724.4C4911.2,2722 4908.8,2720 4906.4,2718C4908.8,2716 4911.2,2714 4913.6,2711.6C4928.4,2697.2 4937.6,2677.2 4937.6,2655.6C4937.6,2633.6 4928.4,2613.6 4913.6,2599.2C4898.8,2584.8 4878.4,2576 4856.4,2576C4834,2576 4813.6,2584.8 4798.8,2599.2C4784.4,2613.6 4775.2,2633.2 4775.2,2655.2L4775.2,2860L4809.6,2860L4809.6,2720.4C4822.8,2729.6 4838.8,2734.8 4856.4,2734.8L4856.8,2734.8C4869.6,2735.2 4880.8,2740 4889.2,2748.4C4898,2756.8 4903.2,2768 4903.2,2780.4L4902.8,2860L4937.6,2860ZM4823.2,2687.6C4814.4,2679.2 4809.6,2668 4809.6,2655.6C4809.6,2642.8 4814.4,2631.6 4823.2,2623.2C4831.6,2614.8 4843.2,2610 4856.4,2610C4869.2,2610 4880.8,2614.8 4889.6,2623.2C4898,2631.6 4903.2,2642.8 4903.2,2655.6C4903.2,2668 4898,2679.2 4889.6,2687.6C4880.8,2695.6 4869.6,2700.8 4856.8,2700.8L4856.4,2700.8C4843.2,2700.8 4831.6,2696 4823.2,2687.6Z" style="fill:rgb(34,56,67);fill-rule:nonzero;"/>
                </g>
                <g transform="matrix(1.33764,0,0,1.33764,-5257.97,-2678.39)">
                    <path d="M5110,2720L5110,2754.4L5214,2754.4C5208.4,2770.8 5199.2,2785.6 5187.2,2797.6C5167.6,2817.2 5140,2829.6 5109.6,2829.6C5079.6,2829.6 5052,2817.2 5032.4,2797.6C5012.4,2777.6 5000,2750.4 5000,2720C5000,2689.6 5012.4,2662.4 5032.4,2642.4C5052,2622.8 5079.6,2610.4 5109.6,2610.4C5140,2610.4 5167.6,2622.8 5187.2,2642.4L5211.6,2618C5185.6,2592 5149.6,2576 5109.6,2576C5070,2576 5034,2592 5008,2618C4982,2644 4965.6,2680.4 4965.6,2720C4965.6,2759.6 4982,2796 5008,2822C5034,2848 5070,2864 5109.6,2864L5110,2864C5149.6,2864 5185.6,2848 5211.6,2822C5237.6,2796 5254,2759.6 5254,2720L5110,2720Z" style="fill:rgb(34,56,67);fill-rule:nonzero;"/>
                </g>
                <g transform="matrix(2.2911e-17,-0.374166,0.653515,4.00162e-17,-2664.86,2791.92)">
                    <path d="M4495.6,4572.79C4495.6,4581.18 4492.6,4589.09 4486.6,4596.49C4480.6,4603.9 4472.4,4610.35 4462,4615.84C4451.6,4621.34 4439.47,4625.69 4425.6,4628.9C4411.73,4632.1 4396.93,4633.71 4381.2,4633.71L4381.2,4613.78C4392.13,4613.78 4402.4,4612.71 4412,4610.57C4421.6,4608.44 4430,4605.5 4437.2,4601.76C4444.4,4598.02 4450.07,4593.67 4454.2,4588.7C4458.33,4583.74 4460.4,4578.44 4460.4,4572.79L4460.4,4422.09L4495.6,4422.09L4495.6,4572.79Z" style="fill:rgb(34,56,67);fill-rule:nonzero;"/>
                    <path d="M4630.8,4472.02C4645.2,4472.02 4658.8,4473.58 4671.6,4476.71C4684.4,4479.84 4695.53,4484.12 4705,4489.54C4714.47,4494.96 4721.93,4501.3 4727.4,4508.55C4732.87,4515.8 4735.6,4523.55 4735.6,4531.79L4735.6,4589.05L4700.8,4589.05L4700.8,4576.22C4691.47,4580.95 4680.87,4584.66 4669,4587.33C4657.13,4590 4644.4,4591.34 4630.8,4591.34C4616.4,4591.34 4602.93,4589.77 4590.4,4586.64C4577.87,4583.51 4566.87,4579.28 4557.4,4573.93C4547.93,4568.59 4540.47,4562.29 4535,4555.04C4529.53,4547.79 4526.8,4540.04 4526.8,4531.79C4526.8,4523.55 4529.53,4515.8 4535,4508.55C4540.47,4501.3 4547.93,4494.96 4557.4,4489.54C4566.87,4484.12 4577.87,4479.84 4590.4,4476.71C4602.93,4473.58 4616.4,4472.02 4630.8,4472.02ZM4630.8,4491.72C4621.2,4491.72 4612.13,4492.75 4603.6,4494.81C4595.07,4496.87 4587.67,4499.73 4581.4,4503.4C4575.13,4507.06 4570.13,4511.33 4566.4,4516.22C4562.67,4521.11 4560.8,4526.3 4560.8,4531.79C4560.8,4537.29 4562.67,4542.48 4566.4,4547.37C4570.13,4552.25 4575.13,4556.49 4581.4,4560.08C4587.67,4563.66 4595.07,4566.53 4603.6,4568.66C4612.13,4570.8 4621.2,4571.87 4630.8,4571.87C4640.67,4571.87 4649.87,4570.8 4658.4,4568.66C4666.93,4566.53 4674.33,4563.66 4680.6,4560.08C4686.87,4556.49 4691.8,4552.25 4695.4,4547.37C4699,4542.48 4700.8,4537.29 4700.8,4531.79C4700.8,4526.3 4699,4521.11 4695.4,4516.22C4691.8,4511.33 4686.87,4507.06 4680.6,4503.4C4674.33,4499.73 4666.93,4496.87 4658.4,4494.81C4649.87,4492.75 4640.67,4491.72 4630.8,4491.72Z" style="fill:rgb(34,56,67);fill-rule:nonzero;"/>
                    <path d="M4878.8,4590.88C4864.4,4590.88 4850.93,4589.32 4838.4,4586.19C4825.87,4583.06 4814.87,4578.82 4805.4,4573.47C4795.93,4568.13 4788.47,4561.83 4783,4554.58C4777.53,4547.33 4774.8,4539.58 4774.8,4531.34C4774.8,4523.09 4777.53,4515.34 4783,4508.09C4788.47,4500.84 4795.93,4494.5 4805.4,4489.08C4814.87,4483.66 4825.87,4479.39 4838.4,4476.26C4850.93,4473.13 4864.4,4471.56 4878.8,4471.56C4890,4471.56 4900.93,4473.05 4911.6,4476.03C4922.27,4479.01 4932,4483.01 4940.8,4488.05L4916.8,4501.79C4910.93,4498.59 4904.8,4496.03 4898.4,4494.12C4892,4492.21 4885.47,4491.26 4878.8,4491.26C4869.2,4491.26 4860.13,4492.29 4851.6,4494.35C4843.07,4496.41 4835.67,4499.27 4829.4,4502.94C4823.13,4506.6 4818.13,4510.88 4814.4,4515.76C4810.67,4520.65 4808.8,4525.84 4808.8,4531.34C4808.8,4536.83 4810.67,4542.02 4814.4,4546.91C4818.13,4551.79 4823.13,4556.03 4829.4,4559.62C4835.67,4563.21 4843.07,4566.07 4851.6,4568.21C4860.13,4570.34 4869.2,4571.41 4878.8,4571.41C4885.47,4571.41 4892,4570.5 4898.4,4568.66C4904.8,4566.83 4910.93,4564.24 4916.8,4560.88L4940.8,4574.62C4932,4579.66 4922.27,4583.63 4911.6,4586.53C4900.93,4589.43 4890,4590.88 4878.8,4590.88Z" style="fill:rgb(34,56,67);fill-rule:nonzero;"/>
                    <path d="M5061.2,4472.25C5075.6,4472.25 5089.13,4473.81 5101.8,4476.94C5114.47,4480.07 5125.53,4484.31 5135,4489.65C5144.47,4495 5151.93,4501.33 5157.4,4508.66C5162.87,4515.99 5165.6,4523.78 5165.6,4532.02C5165.6,4540.27 5162.87,4548.02 5157.4,4555.27C5151.93,4562.52 5144.47,4568.82 5135,4574.16C5125.53,4579.51 5114.47,4583.74 5101.8,4586.87C5089.13,4590 5075.6,4591.57 5061.2,4591.57C5046.8,4591.57 5033.33,4590 5020.8,4586.87C5008.27,4583.74 4997.27,4579.51 4987.8,4574.16C4978.33,4568.82 4970.87,4562.52 4965.4,4555.27C4959.93,4548.02 4957.2,4540.27 4957.2,4532.02C4957.2,4523.78 4959.93,4515.99 4965.4,4508.66C4970.87,4501.33 4978.33,4495 4987.8,4489.65C4997.27,4484.31 5008.27,4480.07 5020.8,4476.94C5033.33,4473.81 5046.8,4472.25 5061.2,4472.25ZM5061.2,4491.94C5051.6,4491.94 5042.53,4492.98 5034,4495.04C5025.47,4497.1 5018,4499.96 5011.6,4503.62C5005.2,4507.29 5000.2,4511.56 4996.6,4516.45C4993,4521.34 4991.2,4526.53 4991.2,4532.02C4991.2,4537.52 4993,4542.71 4996.6,4547.6C5000.2,4552.48 5005.2,4556.72 5011.6,4560.31C5018,4563.89 5025.47,4566.76 5034,4568.89C5042.53,4571.03 5051.6,4572.1 5061.2,4572.1C5070.8,4572.1 5079.87,4571.03 5088.4,4568.89C5096.93,4566.76 5104.4,4563.89 5110.8,4560.31C5117.2,4556.72 5122.2,4552.48 5125.8,4547.6C5129.4,4542.71 5131.2,4537.52 5131.2,4532.02C5131.2,4526.53 5129.4,4521.34 5125.8,4516.45C5122.2,4511.56 5117.2,4507.29 5110.8,4503.62C5104.4,4499.96 5096.93,4497.1 5088.4,4495.04C5079.87,4492.98 5070.8,4491.94 5061.2,4491.94Z" style="fill:rgb(34,56,67);fill-rule:nonzero;"/>
                    <path d="M5306,4472.48C5320.4,4472.48 5334,4474.04 5346.8,4477.17C5359.6,4480.3 5370.73,4484.54 5380.2,4489.88C5389.67,4495.23 5397.13,4501.56 5402.6,4508.89C5408.07,4516.22 5410.8,4524.01 5410.8,4532.25C5410.8,4540.5 5408.07,4548.21 5402.6,4555.38C5397.13,4562.56 5389.67,4568.86 5380.2,4574.28C5370.73,4579.7 5359.6,4583.97 5346.8,4587.1C5334,4590.23 5320.4,4591.8 5306,4591.8C5291.6,4591.8 5278.13,4590.23 5265.6,4587.1C5253.07,4583.97 5242.07,4579.7 5232.6,4574.28C5223.13,4568.86 5215.67,4562.56 5210.2,4555.38C5204.73,4548.21 5202,4540.5 5202,4532.25L5202,4421.86L5236,4421.86L5236,4488.05C5245.33,4483.32 5256,4479.54 5268,4476.71C5280,4473.89 5292.67,4472.48 5306,4472.48ZM5306,4492.17C5296.4,4492.17 5287.33,4493.2 5278.8,4495.27C5270.27,4497.33 5262.87,4500.19 5256.6,4503.85C5250.33,4507.52 5245.33,4511.79 5241.6,4516.68C5237.87,4521.56 5236,4526.76 5236,4532.25C5236,4537.75 5237.87,4542.94 5241.6,4547.82C5245.33,4552.71 5250.33,4556.95 5256.6,4560.53C5262.87,4564.12 5270.27,4566.98 5278.8,4569.12C5287.33,4571.26 5296.4,4572.33 5306,4572.33C5315.87,4572.33 5325.07,4571.26 5333.6,4569.12C5342.13,4566.98 5349.53,4564.12 5355.8,4560.53C5362.07,4556.95 5367,4552.71 5370.6,4547.82C5374.2,4542.94 5376,4537.75 5376,4532.25C5376,4526.76 5374.2,4521.56 5370.6,4516.68C5367,4511.79 5362.07,4507.52 5355.8,4503.85C5349.53,4500.19 5342.13,4497.33 5333.6,4495.27C5325.07,4493.2 5315.87,4492.17 5306,4492.17Z" style="fill:rgb(34,56,67);fill-rule:nonzero;"/>
                </g>
            </g>
        </g>
    </g>
</svg>
