<?xml version="1.0" encoding="UTF-8" standalone="no"?>
<!DOCTYPE svg PUBLIC "-//W3C//DTD SVG 1.1//EN" "http://www.w3.org/Graphics/SVG/1.1/DTD/svg11.dtd">
<svg width="100%" height="100%" viewBox="0 0 1920 1920" version="1.1" xmlns="http://www.w3.org/2000/svg" xmlns:xlink="http://www.w3.org/1999/xlink" xml:space="preserve" xmlns:serif="http://www.serif.com/" style="fill-rule:evenodd;clip-rule:evenodd;stroke-linejoin:round;stroke-miterlimit:2;">
    <g transform="matrix(1,0,0,1,-6064,-1985)">
        <g id="galaxy" transform="matrix(1,0,0,1,6064,1985)">
            <rect x="0" y="0" width="1920" height="1920" style="fill:none;"/>
            <g transform="matrix(3.53712,0,0,3.53712,-15855.5,-10266.3)">
                <g id="galaxy1" serif:id="galaxy">
                    <path d="M4754,2945C4880.39,2945 4983,3047.61 4983,3174C4983,3300.39 4880.39,3403 4754,3403C4627.61,3403 4525,3300.39 4525,3174C4525,3047.61 4627.61,2945 4754,2945ZM4619.29,3021.3C4592.24,3045.18 4571.58,3076.14 4560.2,3111.25L4573.79,3110.51C4597.51,3110.51 4616.77,3091.24 4616.77,3067.52L4619.29,3021.3ZM4783,3375.61C4881.69,3361.52 4957.66,3276.56 4957.66,3174C4957.66,3061.6 4866.4,2970.34 4754,2970.34C4703.43,2970.34 4657.14,2988.81 4621.52,3019.37L4624.14,3067.52C4624.14,3091.24 4643.4,3110.51 4667.13,3110.51L4734.51,3114.19L4667.13,3117.88C4643.4,3117.88 4624.14,3137.14 4624.14,3160.86L4620.46,3228.24L4616.77,3160.86C4616.77,3137.14 4597.51,3117.88 4573.79,3117.88L4558.43,3117.04C4553.16,3135.12 4550.34,3154.23 4550.34,3174C4550.34,3286.4 4641.6,3377.66 4754,3377.66C4762.43,3377.66 4770.74,3377.15 4778.9,3376.15L4776.62,3334.55C4776.62,3306.8 4754.09,3284.26 4726.33,3284.26L4647.51,3279.95L4726.33,3275.64C4754.09,3275.64 4776.62,3253.11 4776.62,3225.35L4780.93,3146.27L4785.24,3225.35C4785.24,3253.11 4807.78,3275.64 4835.53,3275.64L4914.36,3279.95L4835.53,3284.26C4807.78,3284.26 4785.24,3306.8 4785.24,3334.55L4783,3375.61ZM4812.22,3000.93L4815.19,3055.37C4815.19,3074.47 4830.7,3089.99 4849.8,3089.99L4904.06,3092.95L4849.8,3095.92C4830.7,3095.92 4815.19,3111.43 4815.19,3130.54L4812.22,3184.8L4809.25,3130.54C4809.25,3111.43 4793.74,3095.92 4774.64,3095.92L4720.38,3092.95L4774.64,3089.99C4793.74,3089.99 4809.25,3074.47 4809.25,3055.37L4812.22,3000.93Z" style="fill:rgb(245,247,248);"/>
                </g>
            </g>
        </g>
    </g>
</svg>
