<?xml version="1.0" encoding="UTF-8" standalone="no"?>
<!DOCTYPE svg PUBLIC "-//W3C//DTD SVG 1.1//EN" "http://www.w3.org/Graphics/SVG/1.1/DTD/svg11.dtd">
<svg width="100%" height="100%" viewBox="0 0 1250 250" version="1.1" xmlns="http://www.w3.org/2000/svg" xmlns:xlink="http://www.w3.org/1999/xlink" xml:space="preserve" xmlns:serif="http://www.serif.com/" style="fill-rule:evenodd;clip-rule:evenodd;stroke-linejoin:round;stroke-miterlimit:2;">
    <g transform="matrix(1,0,0,1,-2660,-710)">
        <g id="Artboard2.2" transform="matrix(1,0,0,1,2660,710)">
            <rect x="0" y="0" width="1250" height="250" style="fill:none;"/>
            <clipPath id="_clip1">
                <rect x="0" y="0" width="1250" height="250"/>
            </clipPath>
            <g clip-path="url(#_clip1)">
                <g transform="matrix(1,0,0,1,230.5,2)">
                    <text x="77.684px" y="118.811px" style="font-family:'Impact', sans-serif;font-stretch:condensed;font-size:40px;">Campus</text>
                    <g transform="matrix(40,0,0,40,250.34,158.811)">
                    </g>
                    <text x="38.66px" y="158.811px" style="font-family:'Impact', sans-serif;font-stretch:condensed;font-size:40px;">construction</text>
                </g>
                <g>
                    <g transform="matrix(0.720461,0,0,2.77778,430.115,-347.222)">
                        <path d="M444,125L444,215L97,215L97,125L444,125ZM437.06,126.8L103.94,126.8L103.94,213.2L437.06,213.2L437.06,126.8Z"/>
                    </g>
                    <g transform="matrix(0.720461,0,0,2.77778,-69.8847,-347.222)">
                        <path d="M444,125L444,215L97,215L97,125L444,125ZM437.06,126.8L103.94,126.8L103.94,213.2L437.06,213.2L437.06,126.8Z"/>
                    </g>
                    <g transform="matrix(0.720461,0,0,2.77778,930.115,-347.222)">
                        <path d="M444,125L444,215L97,215L97,125L444,125ZM437.06,126.8L103.94,126.8L103.94,213.2L437.06,213.2L437.06,126.8Z"/>
                    </g>
                    <g transform="matrix(1.46542,0,0,1,-1.66599e-13,-460)">
                        <path d="M853,460L853,710L0,710L0,460L853,460ZM849.588,465L3.412,465L3.412,705L849.588,705L849.588,465Z"/>
                    </g>
                </g>
                <g transform="matrix(1,0,0,1,-19.5,2)">
                    <text x="50.223px" y="118.811px" style="font-family:'Impact', sans-serif;font-stretch:condensed;font-size:40px;">GCU growth</text>
                    <g transform="matrix(40,0,0,40,187.469,158.811)">
                    </g>
                    <text x="101.531px" y="158.811px" style="font-family:'Impact', sans-serif;font-stretch:condensed;font-size:40px;">rates</text>
                </g>
                <g transform="matrix(1,0,0,1,730.5,2)">
                    <g transform="matrix(40,0,0,40,230.105,138.811)">
                    </g>
                    <text x="58.895px" y="138.811px" style="font-family:'Impact', sans-serif;font-stretch:condensed;font-size:40px;">Canyon 49</text>
                </g>
                <g transform="matrix(1,0,0,1,480.5,2)">
                    <text x="77.684px" y="118.811px" style="font-family:'Impact', sans-serif;font-stretch:condensed;font-size:40px;">Campus</text>
                    <g transform="matrix(40,0,0,40,196.385,158.811)">
                    </g>
                    <text x="92.615px" y="158.811px" style="font-family:'Impact', sans-serif;font-stretch:condensed;font-size:40px;">Safet<tspan x="178.455px " y="158.811px ">y</tspan></text>
                </g>
                <g transform="matrix(1,0,0,1,980.5,2)">
                    <text x="67.811px" y="118.811px" style="font-family:'Impact', sans-serif;font-stretch:condensed;font-size:40px;">Mentions</text>
                    <g transform="matrix(40,0,0,40,208.416,158.811)">
                    </g>
                    <text x="80.584px" y="158.811px" style="font-family:'Impact', sans-serif;font-stretch:condensed;font-size:40px;">classes</text>
                </g>
            </g>
        </g>
    </g>
</svg>
