<?xml version="1.0" encoding="UTF-8" standalone="no"?>
<!DOCTYPE svg PUBLIC "-//W3C//DTD SVG 1.1//EN" "http://www.w3.org/Graphics/SVG/1.1/DTD/svg11.dtd">
<svg width="100%" height="100%" viewBox="0 0 1250 250" version="1.1" xmlns="http://www.w3.org/2000/svg" xmlns:xlink="http://www.w3.org/1999/xlink" xml:space="preserve" xmlns:serif="http://www.serif.com/" style="fill-rule:evenodd;clip-rule:evenodd;stroke-linejoin:round;stroke-miterlimit:2;">
    <g transform="matrix(1,0,0,1,-2660,-1210)">
        <g id="Artboard4.2" transform="matrix(1,0,0,1,2660,1210)">
            <rect x="0" y="0" width="1250" height="250" style="fill:none;"/>
            <clipPath id="_clip1">
                <rect x="0" y="0" width="1250" height="250"/>
            </clipPath>
            <g clip-path="url(#_clip1)">
                <g transform="matrix(1,0,0,1,480.5,2)">
                    <g transform="matrix(40,0,0,40,241.668,138.811)">
                    </g>
                    <text x="47.332px" y="138.811px" style="font-family:'Impact', sans-serif;font-stretch:condensed;font-size:40px;">Purple Shir<tspan x="229.48px " y="138.811px ">t</tspan></text>
                </g>
                <g>
                    <g transform="matrix(0.720461,0,0,2.77778,430.115,-347.222)">
                        <path d="M444,125L444,215L97,215L97,125L444,125ZM437.06,126.8L103.94,126.8L103.94,213.2L437.06,213.2L437.06,126.8Z"/>
                    </g>
                    <g transform="matrix(0.720461,0,0,2.77778,-69.8847,-347.222)">
                        <path d="M444,125L444,215L97,215L97,125L444,125ZM437.06,126.8L103.94,126.8L103.94,213.2L437.06,213.2L437.06,126.8Z"/>
                    </g>
                    <g transform="matrix(0.720461,0,0,2.77778,930.115,-347.222)">
                        <path d="M444,125L444,215L97,215L97,125L444,125ZM437.06,126.8L103.94,126.8L103.94,213.2L437.06,213.2L437.06,126.8Z"/>
                    </g>
                    <g transform="matrix(1.46542,0,0,1,-1.66599e-13,-460)">
                        <path d="M853,460L853,710L0,710L0,460L853,460ZM849.588,465L3.412,465L3.412,705L849.588,705L849.588,465Z"/>
                    </g>
                </g>
                <g transform="matrix(1,0,0,1,730.5,2)">
                    <text x="110.057px" y="98.811px" style="font-family:'Impact', sans-serif;font-stretch:condensed;font-size:40px;">New</text>
                    <text x="58.113px" y="138.811px" style="font-family:'Impact', sans-serif;font-stretch:condensed;font-size:40px;">T<tspan x="74.871px 95.32px " y="138.811px 138.811px ">es</tspan>tament</text>
                    <g transform="matrix(40,0,0,40,220.75,178.811)">
                    </g>
                    <text x="68.25px" y="178.811px" style="font-family:'Impact', sans-serif;font-stretch:condensed;font-size:40px;">scripture</text>
                </g>
                <g transform="matrix(1,0,0,1,980.5,2)">
                    <text x="49.578px" y="98.811px" style="font-family:'Impact', sans-serif;font-stretch:condensed;font-size:40px;">&quot;leaders all</text>
                    <text x="51.287px" y="138.811px" style="font-family:'Impact', sans-serif;font-stretch:condensed;font-size:40px;">around call</text>
                    <g transform="matrix(40,0,0,40,177.537,178.811)">
                    </g>
                    <text x="111.463px" y="178.811px" style="font-family:'Impact', sans-serif;font-stretch:condensed;font-size:40px;">me&quot;</text>
                </g>
                <g transform="matrix(1,0,0,1,230.5,2)">
                    <text x="84.754px" y="118.811px" style="font-family:'Impact', sans-serif;font-stretch:condensed;font-size:40px;">Getting</text>
                    <g transform="matrix(40,0,0,40,213.084,158.811)">
                    </g>
                    <text x="75.916px" y="158.811px" style="font-family:'Impact', sans-serif;font-stretch:condensed;font-size:40px;">political</text>
                </g>
                <g transform="matrix(1,0,0,1,-19.5,2)">
                    <g transform="matrix(40,0,0,40,227.088,138.811)">
                    </g>
                    <text x="61.912px" y="138.811px" style="font-family:'Impact', sans-serif;font-stretch:condensed;font-size:40px;">Cit<tspan x="108.006px 125.936px " y="138.811px 138.811px ">y </tspan>Ser<tspan x="189.158px 206.639px " y="138.811px 138.811px ">ve</tspan></text>
                </g>
            </g>
        </g>
    </g>
</svg>
