<?xml version="1.0" encoding="UTF-8" standalone="no"?>
<!DOCTYPE svg PUBLIC "-//W3C//DTD SVG 1.1//EN" "http://www.w3.org/Graphics/SVG/1.1/DTD/svg11.dtd">
<svg width="100%" height="100%" viewBox="0 0 1250 250" version="1.1" xmlns="http://www.w3.org/2000/svg" xmlns:xlink="http://www.w3.org/1999/xlink" xml:space="preserve" xmlns:serif="http://www.serif.com/" style="fill-rule:evenodd;clip-rule:evenodd;stroke-linejoin:round;stroke-miterlimit:2;">
    <g transform="matrix(1,0,0,1,-1.13687e-13,-710)">
        <g id="Artboard2" transform="matrix(1,0,0,1,1.13687e-13,710)">
            <rect x="0" y="0" width="1250" height="250" style="fill:none;"/>
            <clipPath id="_clip1">
                <rect x="0" y="0" width="1250" height="250"/>
            </clipPath>
            <g clip-path="url(#_clip1)">
                <g transform="matrix(0.720461,0,0,2.77778,-69.8847,-347.222)">
                    <rect x="97" y="125" width="347" height="90" style="fill:rgb(65,191,179);"/>
                </g>
                <g transform="matrix(0.720461,0,0,2.77778,180.115,-347.222)">
                    <rect x="97" y="125" width="347" height="90" style="fill:rgb(43,140,131);"/>
                </g>
                <g transform="matrix(0.720461,0,0,2.77778,430.115,-347.222)">
                    <rect x="97" y="125" width="347" height="90" style="fill:rgb(65,191,179);"/>
                </g>
                <g transform="matrix(1,0,0,1,-19.5,2)">
                    <text x="84.754px" y="118.811px" style="font-family:'Impact', sans-serif;font-stretch:condensed;font-size:40px;">Getting</text>
                    <g transform="matrix(40,0,0,40,213.084,158.811)">
                    </g>
                    <text x="75.916px" y="158.811px" style="font-family:'Impact', sans-serif;font-stretch:condensed;font-size:40px;">political</text>
                </g>
                <g transform="matrix(1,0,0,1,230.5,2)">
                    <text x="49.578px" y="98.811px" style="font-family:'Impact', sans-serif;font-stretch:condensed;font-size:40px;">&quot;leaders all</text>
                    <text x="51.287px" y="138.811px" style="font-family:'Impact', sans-serif;font-stretch:condensed;font-size:40px;">around call</text>
                    <g transform="matrix(40,0,0,40,177.537,178.811)">
                    </g>
                    <text x="111.463px" y="178.811px" style="font-family:'Impact', sans-serif;font-stretch:condensed;font-size:40px;">me&quot;</text>
                </g>
                <g transform="matrix(1,0,0,1,480.5,2)">
                    <text x="67.811px" y="118.811px" style="font-family:'Impact', sans-serif;font-stretch:condensed;font-size:40px;">Mentions</text>
                    <g transform="matrix(40,0,0,40,245.721,158.811)">
                    </g>
                    <text x="43.279px" y="158.811px" style="font-family:'Impact', sans-serif;font-stretch:condensed;font-size:40px;">29th Avenue</text>
                </g>
                <g transform="matrix(0.720461,0,0,2.77778,680.115,-347.222)">
                    <rect x="97" y="125" width="347" height="90" style="fill:rgb(43,140,131);"/>
                </g>
                <g transform="matrix(0.720461,0,0,2.77778,930.115,-347.222)">
                    <rect x="97" y="125" width="347" height="90" style="fill:rgb(65,191,179);"/>
                </g>
                <g transform="matrix(1,0,0,1,730.5,2)">
                    <text x="75.076px" y="118.811px" style="font-family:'Impact', sans-serif;font-stretch:condensed;font-size:40px;">Worship</text>
                    <g transform="matrix(40,0,0,40,245.926,158.811)">
                    </g>
                    <text x="43.074px" y="158.811px" style="font-family:'Impact', sans-serif;font-stretch:condensed;font-size:40px;">team thanks</text>
                </g>
                <g transform="matrix(1,0,0,1,980.5,2)">
                    <g transform="matrix(40,0,0,40,247.029,138.811)">
                    </g>
                    <text x="41.971px" y="138.811px" style="font-family:'Impact', sans-serif;font-stretch:condensed;font-size:40px;">Water Bottle</text>
                </g>
            </g>
        </g>
    </g>
</svg>
