<?xml version="1.0" encoding="UTF-8" standalone="no"?>
<!DOCTYPE svg PUBLIC "-//W3C//DTD SVG 1.1//EN" "http://www.w3.org/Graphics/SVG/1.1/DTD/svg11.dtd">
<svg width="100%" height="100%" viewBox="0 0 1250 250" version="1.1" xmlns="http://www.w3.org/2000/svg" xmlns:xlink="http://www.w3.org/1999/xlink" xml:space="preserve" xmlns:serif="http://www.serif.com/" style="fill-rule:evenodd;clip-rule:evenodd;stroke-linejoin:round;stroke-miterlimit:2;">
    <g transform="matrix(1,0,0,1,-1330,-1460)">
        <g id="Artboard5.1" transform="matrix(1,0,0,1,1330,1460)">
            <rect x="0" y="0" width="1250" height="250" style="fill:none;"/>
            <clipPath id="_clip1">
                <rect x="0" y="0" width="1250" height="250"/>
            </clipPath>
            <g clip-path="url(#_clip1)">
                <g transform="matrix(1,0,0,1,980.5,2)">
                    <text x="49.578px" y="98.811px" style="font-family:'Impact', sans-serif;font-stretch:condensed;font-size:40px;">&quot;leaders all</text>
                    <text x="51.287px" y="138.811px" style="font-family:'Impact', sans-serif;font-stretch:condensed;font-size:40px;">around call</text>
                    <g transform="matrix(40,0,0,40,177.537,178.811)">
                    </g>
                    <text x="111.463px" y="178.811px" style="font-family:'Impact', sans-serif;font-stretch:condensed;font-size:40px;">me&quot;</text>
                </g>
                <g>
                    <g transform="matrix(0.720461,0,0,2.77778,430.115,-347.222)">
                        <path d="M444,125L444,215L97,215L97,125L444,125ZM437.06,126.8L103.94,126.8L103.94,213.2L437.06,213.2L437.06,126.8Z"/>
                    </g>
                    <g transform="matrix(0.720461,0,0,2.77778,-69.8847,-347.222)">
                        <path d="M444,125L444,215L97,215L97,125L444,125ZM437.06,126.8L103.94,126.8L103.94,213.2L437.06,213.2L437.06,126.8Z"/>
                    </g>
                    <g transform="matrix(0.720461,0,0,2.77778,930.115,-347.222)">
                        <path d="M444,125L444,215L97,215L97,125L444,125ZM437.06,126.8L103.94,126.8L103.94,213.2L437.06,213.2L437.06,126.8Z"/>
                    </g>
                    <g transform="matrix(1.46542,0,0,1,-1.66599e-13,-460)">
                        <path d="M853,460L853,710L0,710L0,460L853,460ZM849.588,465L3.412,465L3.412,705L849.588,705L849.588,465Z"/>
                    </g>
                </g>
                <g transform="matrix(1,0,0,1,480.5,2)">
                    <text x="67.811px" y="118.811px" style="font-family:'Impact', sans-serif;font-stretch:condensed;font-size:40px;">Mentions</text>
                    <g transform="matrix(40,0,0,40,235.203,158.811)">
                    </g>
                    <text x="53.797px" y="158.811px" style="font-family:'Impact', sans-serif;font-stretch:condensed;font-size:40px;">new eater<tspan x="217.273px " y="158.811px ">y</tspan></text>
                </g>
                <g transform="matrix(1,0,0,1,730.5,2)">
                    <text x="85.437px" y="78.811px" style="font-family:'Impact', sans-serif;font-stretch:condensed;font-size:40px;">Excited</text>
                    <g transform="matrix(40,0,0,40,161.385,118.811)">
                    </g>
                    <g transform="matrix(40,0,0,40,172.897,118.811)">
                    </g>
                    <text x="59.861px" y="118.811px" style="font-family:'Impact', sans-serif;font-stretch:condensed;font-size:40px;">about ﬁrst</text>
                    <text x="95.535px" y="158.811px" style="font-family:'Impact', sans-serif;font-stretch:condensed;font-size:40px;">day of</text>
                    <g transform="matrix(40,0,0,40,201.033,198.811)">
                    </g>
                    <text x="87.967px" y="198.811px" style="font-family:'Impact', sans-serif;font-stretch:condensed;font-size:40px;">chapel</text>
                </g>
                <g transform="matrix(1,0,0,1,230.5,2)">
                    <g transform="matrix(40,0,0,40,245.936,138.811)">
                    </g>
                    <text x="43.064px" y="138.811px" style="font-family:'Impact', sans-serif;font-stretch:condensed;font-size:40px;">Water Break</text>
                </g>
                <g transform="matrix(1,0,0,1,-19.5,2)">
                    <g transform="matrix(40,0,0,40,227.088,138.811)">
                    </g>
                    <text x="61.912px" y="138.811px" style="font-family:'Impact', sans-serif;font-stretch:condensed;font-size:40px;">Cit<tspan x="108.006px 125.936px " y="138.811px 138.811px ">y </tspan>Ser<tspan x="189.158px 206.639px " y="138.811px 138.811px ">ve</tspan></text>
                </g>
            </g>
        </g>
    </g>
</svg>
