<?xml version="1.0" encoding="UTF-8"?>
<!-- Generated by Pixelmator Pro 3.2.2 -->
<svg width="300" height="300" viewBox="0 0 300 300" xmlns="http://www.w3.org/2000/svg" xmlns:xlink="http://www.w3.org/1999/xlink">
    <path id="--" fill="#252620" fill-rule="evenodd" stroke="none" d="M 67.299683 241.552841 C 71.738716 241.771362 77.564835 241.935242 84.77829 242.044495 L 126.116577 242.044495 C 130.925537 242.153748 141.468109 242.536148 157.744522 243.191681 C 170.50676 243.737961 181.234283 244.011108 189.927353 244.011108 C 194.366409 244.011108 200.932373 243.628708 209.625488 242.863907 C 218.318619 242.099121 224.884567 241.716736 229.323578 241.716736 C 233.947586 241.716736 237.924149 241.989868 241.253433 242.536148 C 251.611176 244.174988 256.512573 245.595306 255.957672 246.797119 C 255.587738 247.671173 252.53595 248.272079 246.802216 248.599854 C 242.548157 248.818359 238.479095 250.020172 234.594925 252.205292 C 232.190475 253.844147 229.786026 255.482956 227.381516 257.121796 C 227.196579 257.340302 226.826691 257.449585 226.27179 257.449585 C 225.716904 257.449585 224.283493 257.012543 221.971481 256.138519 C 219.659485 255.26445 217.856171 254.827438 216.561447 254.827438 C 215.636673 254.827438 214.341949 255.72879 212.677322 257.531525 C 211.012665 259.334259 209.717987 260.235596 208.793152 260.235596 C 207.683426 260.235596 206.065063 258.651398 203.938004 255.482971 C 201.810959 252.314529 200.470032 250.730347 199.915146 250.730347 C 190.112289 248.982239 182.621506 248.1082 177.442657 248.1082 C 172.818649 248.1082 168.102264 248.490585 163.293304 249.255386 C 155.525024 253.40712 149.976288 255.482971 146.647003 255.482971 C 143.687668 255.482971 141.005768 254.608932 138.601318 252.86084 C 138.601318 252.86084 136.289322 251.986786 131.665359 250.238678 C 127.041359 248.490585 122.694855 247.616547 118.625732 247.616547 C 116.036339 247.616547 113.631889 247.998932 111.412338 248.763733 C 105.308716 250.511841 100.592262 251.38588 97.263031 251.38588 C 93.933754 251.38588 90.512024 250.67572 86.997795 249.255386 C 86.812851 249.146118 86.535408 250.457184 86.165459 253.188599 C 85.980515 256.684784 84.870789 259.470795 82.836235 261.546661 C 79.876839 264.715118 75.067993 266.353943 68.409431 266.463196 C 64.340317 266.572449 61.565975 263.731812 60.086281 257.941223 C 58.791557 252.696915 58.421665 249.856293 58.976528 249.419281 C 55.647247 252.259949 52.595463 253.680237 49.821068 253.680237 C 45.567005 253.680237 43.440002 251.659027 43.440002 247.616547 C 43.440002 243.246292 51.393131 241.225082 67.299683 241.552841 Z M 67.299683 137.773041 C 71.738716 137.991531 77.564835 138.155426 84.77829 138.264664 L 126.116577 138.264664 C 130.925537 138.373947 141.468109 138.756332 157.744522 139.41185 C 170.50676 139.958145 181.234283 140.231293 189.927353 140.231293 C 194.366409 140.231293 200.932373 139.848907 209.625488 139.084106 C 218.318619 138.319305 224.884567 137.93692 229.323578 137.93692 C 233.947586 137.93692 237.924149 138.210052 241.253433 138.756332 C 251.611176 140.395172 256.512573 141.815491 255.957672 143.017319 C 255.587738 143.891357 252.53595 144.492264 246.802216 144.820038 C 242.548157 145.038544 238.479095 146.240326 234.594925 148.425476 C 232.190475 150.064316 229.786026 151.70314 227.381516 153.34198 C 227.196579 153.560501 226.826691 153.669754 226.27179 153.669754 C 225.716904 153.669754 224.283493 153.232727 221.971481 152.358688 C 219.659485 151.484634 217.856171 151.047623 216.561447 151.047623 C 215.636673 151.047623 214.341949 151.94899 212.677322 153.751678 C 211.012665 155.554413 209.717987 156.45578 208.793152 156.45578 C 207.683426 156.45578 206.065063 154.871582 203.938004 151.70314 C 201.810959 148.534729 200.470032 146.950516 199.915146 146.950516 C 190.112289 145.202423 182.621506 144.328384 177.442657 144.328384 C 172.818649 144.328384 168.102264 144.71077 163.293304 145.475571 C 155.525024 149.627304 149.976288 151.70314 146.647003 151.70314 C 143.687668 151.70314 141.005768 150.829117 138.601318 149.080994 C 138.601318 149.080994 136.289322 148.206985 131.665359 146.458862 C 127.041359 144.71077 122.694855 143.836716 118.625732 143.836716 C 116.036339 143.836716 113.631889 144.219131 111.412338 144.983902 C 105.308716 146.732025 100.592262 147.606033 97.263031 147.606033 C 93.933754 147.606033 90.512024 146.89592 86.997795 145.475571 C 86.812851 145.366318 86.535408 146.677353 86.165459 149.408768 C 85.980515 152.904984 84.870789 155.690979 82.836235 157.766846 C 79.876839 160.935287 75.067993 162.574097 68.409431 162.68335 C 64.340317 162.792633 61.565975 159.951996 60.086281 154.161423 C 58.791557 148.917114 58.421665 146.076477 58.976528 145.63945 C 55.647247 148.480118 52.595463 149.900436 49.821068 149.900436 C 45.567005 149.900436 43.440002 147.879211 43.440002 143.836716 C 43.440002 139.466461 51.393131 137.445267 67.299683 137.773041 Z M 67.299683 33.993195 C 71.738716 34.211731 77.564835 34.37561 84.77829 34.484863 L 126.116577 34.484863 C 130.925537 34.594116 141.468109 34.976501 157.744522 35.63205 C 170.50676 36.178314 181.234283 36.451447 189.927353 36.451447 C 194.366409 36.451447 200.932373 36.069061 209.625488 35.30426 C 218.318619 34.539459 224.884567 34.157074 229.323578 34.157074 C 233.947586 34.157074 237.924149 34.430237 241.253433 34.976532 C 251.611176 36.615356 256.512573 38.035645 255.957672 39.237488 C 255.587738 40.111542 252.53595 40.712433 246.802216 41.040222 C 242.548157 41.258728 238.479095 42.46051 234.594925 44.645645 C 232.190475 46.284515 229.786026 47.923325 227.381516 49.56218 C 227.196579 49.78067 226.826691 49.889954 226.27179 49.889954 C 225.716904 49.889954 224.283493 49.452927 221.971481 48.578873 C 219.659485 47.704803 217.856171 47.267807 216.561447 47.267807 C 215.636673 47.267807 214.341949 48.169144 212.677322 49.971878 C 211.012665 51.774612 209.717987 52.67598 208.793152 52.67598 C 207.683426 52.67598 206.065063 51.091766 203.938004 47.923325 C 201.810959 44.754883 200.470032 43.170715 199.915146 43.170715 C 190.112289 41.422577 182.621506 40.548553 177.442657 40.548553 C 172.818649 40.548553 168.102264 40.930969 163.293304 41.69577 C 155.525024 45.847488 149.976288 47.923325 146.647003 47.923325 C 143.687668 47.923325 141.005768 47.049286 138.601318 45.301193 C 138.601318 45.301193 136.289322 44.427139 131.665359 42.679047 C 127.041359 40.930969 122.694855 40.056915 118.625732 40.056915 C 116.036339 40.056915 113.631889 40.439301 111.412338 41.204102 C 105.308716 42.952179 100.592262 43.826233 97.263031 43.826233 C 93.933754 43.826233 90.512024 43.116089 86.997795 41.69577 C 86.812851 41.586487 86.535408 42.897552 86.165459 45.628967 C 85.980515 49.125153 84.870789 51.911148 82.836235 53.987045 C 79.876839 57.155457 75.067993 58.794296 68.409431 58.903549 C 64.340317 59.012787 61.565975 56.172195 60.086281 50.381577 C 58.791557 45.137268 58.421665 42.296661 58.976528 41.85965 C 55.647247 44.700317 52.595463 46.12059 49.821068 46.12059 C 45.567005 46.12059 43.440002 44.099396 43.440002 40.056915 C 43.440002 35.686646 51.393131 33.665436 67.299683 33.993195 Z"/>
</svg>
