<?xml version="1.0" encoding="utf-8"?>
<!-- Generator: Adobe Illustrator 26.2.1, SVG Export Plug-In . SVG Version: 6.00 Build 0)  -->
<svg version="1.1" id="Layer_1" xmlns="http://www.w3.org/2000/svg" xmlns:xlink="http://www.w3.org/1999/xlink" x="0px" y="0px"
	 viewBox="0 0 574.6 514.58" style="enable-background:new 0 0 574.6 514.58;" xml:space="preserve">
<style type="text/css">
	.st0{fill:#333132;}
	.st1{fill:#00F782;}
</style>
<g>
	<g>
		<path class="st0" d="M0,489.04h19.05c-0.1,4.92,6.18,10.05,21.25,10.26c14.03,0.1,24.81-1.78,24.81-8.27
			c0-14.24-63.54,2.41-63.54-29c0-14.97,15.6-24.08,38.73-24.08c23.97,0,40.3,10.05,40.51,25.54H61.66
			c0.1-5.03-5.34-10.15-19.99-10.26c-12.67-0.21-21.88,1.78-21.88,7.96c0,13.71,63.43-1.46,63.43,29.21
			c0,15.07-16.64,24.18-41.35,24.18C16.33,514.58-0.31,504.43,0,489.04z"/>
	</g>
	<g>
		<path class="st0" d="M94.32,439.63h71.39v15.28h-53.38v13.61h52.44v14.34h-52.44v14.76h53.38v15.28H94.32V439.63z"/>
	</g>
	<g>
		<path class="st0" d="M175.77,489.04h19.05c-0.1,4.92,6.18,10.05,21.25,10.26c14.03,0.1,24.81-1.78,24.81-8.27
			c0-14.24-63.54,2.41-63.54-29c0-14.97,15.6-24.08,38.73-24.08c23.97,0,40.3,10.05,40.51,25.54h-19.16
			c0.11-5.03-5.34-10.15-19.99-10.26c-12.67-0.21-21.88,1.78-21.88,7.96c0,13.71,63.43-1.46,63.43,29.21
			c0,15.07-16.64,24.18-41.35,24.18C192.09,514.58,175.45,504.43,175.77,489.04z"/>
	</g>
	<g>
		<path class="st0" d="M265.69,489.04h19.05c-0.1,4.92,6.18,10.05,21.25,10.26c14.03,0.1,24.81-1.78,24.81-8.27
			c0-14.24-63.54,2.41-63.54-29c0-14.97,15.6-24.08,38.73-24.08c23.97,0,40.3,10.05,40.51,25.54h-19.16
			c0.1-5.03-5.34-10.15-19.99-10.26c-12.67-0.21-21.88,1.78-21.88,7.96c0,13.71,63.43-1.46,63.43,29.21
			c0,15.07-16.64,24.18-41.35,24.18C282.02,514.58,265.37,504.43,265.69,489.04z"/>
	</g>
	<g>
		<path class="st0" d="M360,439.63h18v73.27h-18V439.63z"/>
	</g>
	<g>
		<path class="st0" d="M387.75,476.27c0-23.03,17.69-38.31,46.27-38.31c28.68,0,46.37,15.28,46.37,38.31
			c0,23.03-17.69,38.31-46.37,38.31C405.44,514.58,387.75,499.3,387.75,476.27z M462.38,476.27c0-14.86-10.78-23.03-28.37-23.03
			c-17.48,0-28.26,8.17-28.26,23.03c0,14.76,10.78,23.03,28.26,23.03C451.6,499.3,462.38,491.03,462.38,476.27z"/>
	</g>
	<g>
		<path class="st0" d="M490.13,439.63h15.07l51.4,46.58v-46.58h18v73.27h-15.18l-51.29-46.58v46.58h-18V439.63z"/>
	</g>
</g>
<path class="st1" d="M401.84,186.13l-69.15-38.32h46.87c40.75,0,73.91-33.15,73.91-73.91S420.32,0,379.56,0H215.91
	c-51.05,0-92.59,41.54-92.59,92.59c0,36.41,19.79,69.99,51.63,87.64l69.15,38.32h-46.87c-40.75,0-73.91,33.15-73.91,73.91
	s33.16,73.91,73.91,73.91h163.65c51.05,0,92.59-41.54,92.59-92.59C453.47,237.36,433.69,203.78,401.84,186.13z M186.05,160.2
	c-24.03-13.32-39.16-38.4-39.81-65.78c-0.92-39.32,32.1-71.51,71.43-71.51h160.41c27.43,0,51.07,21.04,52.43,48.44
	c1.45,29.29-21.96,53.58-50.94,53.58c0,0-66.44,0.01-92.39,0.01c-5.65,0-10.21,4.58-10.21,10.23l-0.02,75.4L186.05,160.2z
	 M359.12,343.46H198.71c-27.43,0-51.07-21.04-52.42-48.44c-1.45-29.29,21.96-53.58,50.94-53.58h92.38c5.65,0,10.23-4.58,10.23-10.23
	V155.8l90.89,50.37c24.03,13.32,39.16,38.4,39.81,65.78C431.48,311.27,398.46,343.46,359.12,343.46z"/>
</svg>
