<?xml version="1.0" encoding="UTF-8" standalone="no"?>
<!DOCTYPE svg PUBLIC "-//W3C//DTD SVG 1.1//EN" "http://www.w3.org/Graphics/SVG/1.1/DTD/svg11.dtd">
<svg width="100%" height="100%" viewBox="0 0 1920 932" version="1.1" xmlns="http://www.w3.org/2000/svg" xmlns:xlink="http://www.w3.org/1999/xlink" xml:space="preserve" xmlns:serif="http://www.serif.com/" style="fill-rule:evenodd;clip-rule:evenodd;stroke-linejoin:round;stroke-miterlimit:2;">
    <g transform="matrix(1,0,0,1,-2039,-1986)">
        <g id="Artboard1" transform="matrix(2.42424,0,0,1.52288,2039,1986)">
            <rect x="0" y="0" width="792" height="612" style="fill:none;"/>
            <g transform="matrix(2.03208,-2.67087e-32,0,2.35477,-62.9333,-426.591)">
                <g transform="matrix(0.765786,0,0,1.05199,14.7746,77.4056)">
                    <g transform="matrix(1,0,0,0.734842,2.84217e-14,61.6389)">
                        <path d="M49.109,162.278C49.109,172.684 49.109,158.507 49.109,272.038L50.442,308.133C50.442,319.852 56.636,329.384 69.026,333.104L147.828,353.047C154.109,352.672 158.422,348.172 160.766,339.547C160.766,304.672 160.672,277.391 160.484,257.703L160.484,240.125C160.484,231.688 155.188,227.422 144.594,227.328L123.219,227.469C121.719,227.469 120.969,226.672 120.969,225.078L120.828,223.953C122.141,219.359 133.156,216.125 153.875,214.25C158.656,209.469 161,204.313 160.906,198.781C160.813,188 161.047,164.75 161.609,129.031C161.516,121.906 158.281,116.188 151.906,111.875C128,111.875 59.893,139.07 59.893,139.07C49.245,144.509 49.203,157.684 49.109,162.278ZM93.406,179.094L93.406,156.734C102.219,146.609 109.297,146.891 114.641,157.578L114.641,174.313C114.641,180.781 108.734,185.141 96.922,187.391C95.141,187.391 93.969,184.625 93.406,179.094ZM96.359,259.531C104.984,255.594 111.313,257.516 115.344,265.297C115.906,273.266 115.531,279.594 114.219,284.281C110.75,290.563 104.844,293.797 96.5,293.984L96.5,293.844C94.156,293.094 92.984,290.75 92.984,286.813L92.844,272.609C92.75,265.391 93.922,261.031 96.359,259.531Z" style="fill:rgb(35,44,51);fill-rule:nonzero;"/>
                    </g>
                    <path d="M180.875,135.649C182.281,135.649 249.688,130.319 257.094,130.319C269.938,130.319 276.359,138.476 276.359,154.788L276.359,302.917C276.078,318.761 267.969,326.73 252.031,326.823L184.109,324.159C171.266,324.159 164.75,317.643 164.563,304.612L164.563,168.977C164.563,147.508 170,136.399 180.875,135.649ZM209.422,183.194L209.422,255.594C211.578,268.719 216.969,275.281 225.594,275.281C228.594,275.281 230.094,266.422 230.094,248.703L230.094,198.241C229.25,183.616 223.906,176.304 214.063,176.304C210.969,177.054 209.422,179.351 209.422,183.194Z" style="fill:rgb(35,44,51);fill-rule:nonzero;"/>
                    <path d="M375.922,136.137C388.578,138.614 394.906,145.043 394.906,163.418L394.906,198.219C394.906,213.125 385.156,220.578 365.656,220.578L360.453,227.469C377.609,227.469 388.531,230.938 393.219,237.875C394.156,239 394.719,247.625 394.906,263.75L394.906,275.844C394.906,276.969 394.906,265.822 394.906,266.385L394.906,296.204C393.969,307.735 389.328,312.169 380.984,313.501L358.203,316.165C349.391,316.072 344.984,310.915 344.984,300.697L344.984,267.125C344.984,264.875 343.813,263.75 341.469,263.75L334.578,263.75C332.891,263.75 331.156,265.484 329.375,268.953L329.375,314.249C329.188,319.592 327.419,322.452 318.739,324.159C316.282,324.642 305.344,325.644 301.813,325.491C289.714,324.967 278.234,318.226 279.453,303.694L279.453,295.538C279.359,247.163 279.313,248.891 279.313,244.766L279.313,158.585C279.313,155.96 279.266,153.241 279.172,150.429C278.984,136.366 284.256,128.05 306.978,129.476L375.922,136.137ZM329.375,168.828L329.375,187.813C329.375,190.063 331.109,191.188 334.578,191.188C342.641,186.969 346.672,179.516 346.672,168.828L346.672,165.594L344.563,162.219C337.813,156.875 332.75,159.078 329.375,168.828Z" style="fill:rgb(35,44,51);fill-rule:nonzero;"/>
                    <g transform="matrix(1,0,0,0.701871,0,58.7501)">
                        <path d="M421.551,112.156C437.241,111.558 485.706,143.44 493.966,148.221C508.141,156.427 510.219,158.393 510.219,171.143L510.219,178.813C509.844,185.469 505.438,188.797 497,188.797L480.547,188.797C471.453,188.516 466.813,184.672 466.625,177.266C466.625,165.172 463.297,159.125 456.641,159.125L452.563,159.125C448.156,159.125 445.953,162.969 445.953,170.656L445.953,247.156C446.891,263.094 451.578,271.063 460.016,271.063C463.297,270.5 464.938,267.219 464.938,261.219C464.938,259.25 462.453,254.844 457.484,248C455.234,245.844 453.828,240.734 453.266,232.672C454.578,218.141 459.031,209.797 466.625,207.641C467.844,207.078 470.563,206.563 474.781,206.094L488,206.094C488.563,206.094 488.938,206.047 489.125,205.953C489.219,205.953 489.406,206 489.688,206.094C502.344,206 508.672,211.719 508.672,223.25C508.578,224.094 508.531,225.313 508.531,226.906L508.531,234.922L508.672,273.671C508.484,292.421 503.234,294.344 492.922,302.218C492.922,302.218 424.077,352.977 413.891,353.469C405.84,353.857 399.828,346.391 399.828,333.641L399.828,138.523C399.828,124.741 410.172,112.59 421.551,112.156Z" style="fill:rgb(35,44,51);fill-rule:nonzero;"/>
                    </g>
                </g>
                <g transform="matrix(0.765786,0,0,1.05199,14.7746,77.4056)">
                    <g transform="matrix(1,0,0,0.734842,2.84217e-14,61.6389)">
                        <path d="M49.109,162.278C49.109,172.684 49.109,158.507 49.109,272.038L50.442,308.133C50.442,319.852 56.636,329.384 69.026,333.104L147.828,353.047C154.109,352.672 158.422,348.172 160.766,339.547C160.766,304.672 160.672,277.391 160.484,257.703L160.484,240.125C160.484,231.688 155.188,227.422 144.594,227.328L123.219,227.469C121.719,227.469 120.969,226.672 120.969,225.078L120.828,223.953C122.141,219.359 133.156,216.125 153.875,214.25C158.656,209.469 161,204.313 160.906,198.781C160.813,188 161.047,164.75 161.609,129.031C161.516,121.906 158.281,116.188 151.906,111.875C128,111.875 59.893,139.07 59.893,139.07C49.245,144.509 49.203,157.684 49.109,162.278ZM93.406,179.094L93.406,156.734C102.219,146.609 109.297,146.891 114.641,157.578L114.641,174.313C114.641,180.781 108.734,185.141 96.922,187.391C95.141,187.391 93.969,184.625 93.406,179.094ZM96.359,259.531C104.984,255.594 111.313,257.516 115.344,265.297C115.906,273.266 115.531,279.594 114.219,284.281C110.75,290.563 104.844,293.797 96.5,293.984L96.5,293.844C94.156,293.094 92.984,290.75 92.984,286.813L92.844,272.609C92.75,265.391 93.922,261.031 96.359,259.531Z" style="fill:rgb(35,44,51);fill-rule:nonzero;"/>
                    </g>
                    <path d="M180.875,135.649C182.281,135.649 249.688,130.319 257.094,130.319C269.938,130.319 276.359,138.476 276.359,154.788L276.359,302.917C276.078,318.761 267.969,326.73 252.031,326.823L184.109,324.159C171.266,324.159 164.75,317.643 164.563,304.612L164.563,168.977C164.563,147.508 170,136.399 180.875,135.649ZM209.422,183.194L209.422,255.594C211.578,268.719 216.969,275.281 225.594,275.281C228.594,275.281 230.094,266.422 230.094,248.703L230.094,198.241C229.25,183.616 223.906,176.304 214.063,176.304C210.969,177.054 209.422,179.351 209.422,183.194Z" style="fill:rgb(35,44,51);fill-rule:nonzero;"/>
                    <path d="M375.922,136.137C388.578,138.614 394.906,145.043 394.906,163.418L394.906,198.219C394.906,213.125 385.156,220.578 365.656,220.578L360.453,227.469C377.609,227.469 388.531,230.938 393.219,237.875C394.156,239 394.719,247.625 394.906,263.75L394.906,275.844C394.906,276.969 394.906,265.822 394.906,266.385L394.906,296.204C393.969,307.735 389.328,312.169 380.984,313.501L358.203,316.165C349.391,316.072 344.984,310.915 344.984,300.697L344.984,267.125C344.984,264.875 343.813,263.75 341.469,263.75L334.578,263.75C332.891,263.75 331.156,265.484 329.375,268.953L329.375,314.249C329.188,319.592 327.419,322.452 318.739,324.159C316.282,324.642 305.344,325.644 301.813,325.491C289.714,324.967 278.234,318.226 279.453,303.694L279.453,295.538C279.359,247.163 279.313,248.891 279.313,244.766L279.313,158.585C279.313,155.96 279.266,153.241 279.172,150.429C278.984,136.366 284.256,128.05 306.978,129.476L375.922,136.137ZM329.375,168.828L329.375,187.813C329.375,190.063 331.109,191.188 334.578,191.188C342.641,186.969 346.672,179.516 346.672,168.828L346.672,165.594L344.563,162.219C337.813,156.875 332.75,159.078 329.375,168.828Z" style="fill:rgb(35,44,51);fill-rule:nonzero;"/>
                    <g transform="matrix(1,0,0,0.701871,0,58.7501)">
                        <path d="M421.551,112.156C434.576,111.558 485.392,131.447 493.966,134.934C509.473,141.242 510.219,145.106 510.219,157.856L510.219,178.813C509.844,185.469 505.438,188.797 497,188.797L480.547,188.797C471.453,188.516 466.813,184.672 466.625,177.266C466.625,165.172 463.297,159.125 456.641,159.125L452.563,159.125C448.156,159.125 445.953,162.969 445.953,170.656L445.953,247.156C446.891,263.094 451.578,271.063 460.016,271.063C463.297,270.5 464.938,267.219 464.938,261.219C464.938,259.25 462.453,254.844 457.484,248C455.234,245.844 453.828,240.734 453.266,232.672C454.578,218.141 459.031,209.797 466.625,207.641C467.844,207.078 470.563,206.563 474.781,206.094L488,206.094C488.563,206.094 488.938,206.047 489.125,205.953C489.219,205.953 489.406,206 489.688,206.094C502.344,206 508.672,211.719 508.672,223.25C508.578,224.094 508.531,225.313 508.531,226.906L508.531,269.516C508.531,282.547 508.672,290.755 508.672,290.755C508.484,309.505 504.567,313.326 492.922,319.302C492.922,319.302 421.413,352.977 413.891,353.469C405.844,353.995 399.828,346.391 399.828,333.641L399.828,138.523C399.828,124.741 410.174,112.679 421.551,112.156Z" style="fill:rgb(35,44,51);fill-rule:nonzero;"/>
                    </g>
                </g>
                <g transform="matrix(0.765786,0,0,1.05199,8.58707,66.0723)">
                    <g transform="matrix(1,0,0,0.734842,2.84217e-14,61.6389)">
                        <path d="M49.109,162.278C49.109,172.684 49.109,158.507 49.109,272.038L50.442,308.133C50.442,319.852 56.636,329.384 69.026,333.104L147.828,353.047C154.109,352.672 158.422,348.172 160.766,339.547C160.766,304.672 160.672,277.391 160.484,257.703L160.484,240.125C160.484,231.688 155.188,227.422 144.594,227.328L123.219,227.469C121.719,227.469 120.969,226.672 120.969,225.078L120.828,223.953C122.141,219.359 133.156,216.125 153.875,214.25C158.656,209.469 161,204.313 160.906,198.781C160.813,188 161.047,164.75 161.609,129.031C161.516,121.906 158.281,116.188 151.906,111.875C128,111.875 59.893,139.07 59.893,139.07C49.245,144.509 49.203,157.684 49.109,162.278ZM93.406,179.094L93.406,156.734C102.219,146.609 109.297,146.891 114.641,157.578L114.641,174.313C114.641,180.781 108.734,185.141 96.922,187.391C95.141,187.391 93.969,184.625 93.406,179.094ZM96.359,259.531C104.984,255.594 111.313,257.516 115.344,265.297C115.906,273.266 115.531,279.594 114.219,284.281C110.75,290.563 104.844,293.797 96.5,293.984L96.5,293.844C94.156,293.094 92.984,290.75 92.984,286.813L92.844,272.609C92.75,265.391 93.922,261.031 96.359,259.531Z" style="fill:rgb(241,218,191);fill-rule:nonzero;"/>
                    </g>
                    <path d="M180.875,135.649C182.281,135.649 249.688,130.319 257.094,130.319C269.938,130.319 276.359,138.476 276.359,154.788L276.359,302.917C276.078,318.761 267.969,326.73 252.031,326.823L184.109,324.159C171.266,324.159 164.75,317.643 164.563,304.612L164.563,168.977C164.563,147.508 170,136.399 180.875,135.649ZM209.422,183.194L209.422,255.594C211.578,268.719 216.969,275.281 225.594,275.281C228.594,275.281 230.094,266.422 230.094,248.703L230.094,198.241C229.25,183.616 223.906,176.304 214.063,176.304C210.969,177.054 209.422,179.351 209.422,183.194Z" style="fill:rgb(241,218,191);fill-rule:nonzero;"/>
                    <path d="M375.922,136.137C388.578,138.614 394.906,145.043 394.906,163.418L394.906,198.219C394.906,213.125 385.156,220.578 365.656,220.578L360.453,227.469C377.609,227.469 388.531,230.938 393.219,237.875C394.156,239 394.719,247.625 394.906,263.75L394.906,275.844C394.906,276.969 394.906,265.822 394.906,266.385L394.906,296.204C393.969,307.735 389.328,312.169 380.984,313.501L358.203,316.165C349.391,316.072 344.984,310.915 344.984,300.697L344.984,267.125C344.984,264.875 343.813,263.75 341.469,263.75L334.578,263.75C332.891,263.75 331.156,265.484 329.375,268.953L329.375,314.249C329.188,319.592 327.419,322.452 318.739,324.159C316.282,324.642 305.344,325.644 301.813,325.491C289.714,324.967 278.234,318.226 279.453,303.694L279.453,295.538C279.359,247.163 279.313,248.891 279.313,244.766L279.313,158.585C279.313,155.96 279.266,153.241 279.172,150.429C278.984,136.366 284.256,128.05 306.978,129.476L375.922,136.137ZM329.375,168.828L329.375,187.813C329.375,190.063 331.109,191.188 334.578,191.188C342.641,186.969 346.672,179.516 346.672,168.828L346.672,165.594L344.563,162.219C337.813,156.875 332.75,159.078 329.375,168.828Z" style="fill:rgb(241,218,191);fill-rule:nonzero;"/>
                    <g transform="matrix(1,0,0,0.701871,0,58.7501)">
                        <path d="M421.551,112.156C434.576,111.558 485.392,131.447 493.966,134.934C509.473,141.242 510.219,145.106 510.219,157.856L510.219,178.813C509.844,185.469 505.438,188.797 497,188.797L480.547,188.797C471.453,188.516 466.813,184.672 466.625,177.266C466.625,165.172 463.297,159.125 456.641,159.125L452.563,159.125C448.156,159.125 445.953,162.969 445.953,170.656L445.953,247.156C446.891,263.094 451.578,271.063 460.016,271.063C463.297,270.5 464.938,267.219 464.938,261.219C464.938,259.25 462.453,254.844 457.484,248C455.234,245.844 453.828,240.734 453.266,232.672C454.578,218.141 459.031,209.797 466.625,207.641C467.844,207.078 470.563,206.563 474.781,206.094L488,206.094C488.563,206.094 488.938,206.047 489.125,205.953C489.219,205.953 489.406,206 489.688,206.094C502.344,206 508.672,211.719 508.672,223.25C508.578,224.094 508.531,225.313 508.531,226.906L508.531,269.516C508.531,282.547 508.672,290.755 508.672,290.755C508.484,309.505 504.567,313.326 492.922,319.302C492.922,319.302 421.413,352.977 413.891,353.469C405.844,353.995 399.828,346.391 399.828,333.641L399.828,138.523C399.828,124.741 410.174,112.679 421.551,112.156Z" style="fill:rgb(241,218,191);fill-rule:nonzero;"/>
                    </g>
                </g>
            </g>
        </g>
    </g>
</svg>
