<?xml version="1.0" encoding="UTF-8" standalone="no"?>
<!DOCTYPE svg PUBLIC "-//W3C//DTD SVG 1.1//EN" "http://www.w3.org/Graphics/SVG/1.1/DTD/svg11.dtd">
<svg width="100%" height="100%" viewBox="0 0 1920 1920" version="1.1" xmlns="http://www.w3.org/2000/svg" xmlns:xlink="http://www.w3.org/1999/xlink" xml:space="preserve" xmlns:serif="http://www.serif.com/" style="fill-rule:evenodd;clip-rule:evenodd;stroke-linecap:square;stroke-linejoin:round;stroke-miterlimit:1.5;">
    <rect id="Artboard1" x="0" y="0" width="1920" height="1920" style="fill:none;"/>
    <g id="Artboard11" serif:id="Artboard1">
        <g transform="matrix(3.55298,0,0,3.55298,-2472.15,-2442.92)">
            <g transform="matrix(1,0,0,1,2.0151,-0.188242)">
                <g transform="matrix(1,0,0,1,633.164,92.5708)">
                    <path d="M139.411,928.179L139.411,806.679L150.811,806.679L150.811,919.629L185.311,919.629L185.311,928.179L139.411,928.179Z" style="fill:rgb(88,69,39);fill-rule:nonzero;"/>
                </g>
                <g transform="matrix(1,0,0,1,633.164,92.5708)">
                    <rect x="197.011" y="806.679" width="11.4" height="121.5" style="fill:rgb(88,69,39);fill-rule:nonzero;"/>
                </g>
                <g transform="matrix(1,0,0,1,623.264,92.5708)">
                    <path d="M230.011,928.179L230.011,806.679L256.111,806.679C261.611,806.679 266.261,807.379 270.061,808.779C273.861,810.179 276.911,812.229 279.211,814.929C281.511,817.629 283.186,820.854 284.236,824.604C285.286,828.354 285.811,832.479 285.811,836.979C285.811,840.879 285.336,844.654 284.386,848.304C283.436,851.954 281.861,855.054 279.661,857.604C277.461,860.154 274.361,861.829 270.361,862.629C275.061,863.929 278.761,866.154 281.461,869.304C284.161,872.454 286.036,876.104 287.086,880.254C288.136,884.404 288.661,888.679 288.661,893.079C288.661,897.879 288.236,902.404 287.386,906.654C286.536,910.904 285.036,914.629 282.886,917.829C280.736,921.029 277.811,923.554 274.111,925.404C270.411,927.254 265.711,928.179 260.011,928.179L230.011,928.179ZM241.411,919.629L257.761,919.629C265.661,919.629 270.936,917.479 273.586,913.179C276.236,908.879 277.561,902.179 277.561,893.079C277.561,888.179 276.961,883.829 275.761,880.029C274.561,876.229 272.536,873.254 269.686,871.104C266.836,868.954 262.961,867.879 258.061,867.879L241.411,867.879L241.411,919.629ZM241.411,859.029L257.911,859.029C262.611,859.029 266.211,858.104 268.711,856.254C271.211,854.404 272.961,851.854 273.961,848.604C274.961,845.354 275.461,841.479 275.461,836.979C275.461,832.079 274.786,828.029 273.436,824.829C272.086,821.629 269.761,819.279 266.461,817.779C263.161,816.279 258.411,815.529 252.211,815.529L241.411,815.529L241.411,859.029Z" style="fill:rgb(88,69,39);fill-rule:nonzero;"/>
                </g>
                <g transform="matrix(1,0,0,1,618.464,92.5708)">
                    <path d="M305.161,928.179L305.161,806.679L349.111,806.679L349.111,815.529L316.711,815.529L316.711,861.129L343.111,861.129L343.111,869.529L316.711,869.529L316.711,919.629L349.411,919.629L349.411,928.179L305.161,928.179Z" style="fill:rgb(88,69,39);fill-rule:nonzero;"/>
                </g>
                <g transform="matrix(1,0,0,1,614.564,92.5708)">
                    <path d="M365.011,928.179L365.011,806.679L392.461,806.679C400.061,806.679 406.036,807.904 410.386,810.354C414.736,812.804 417.861,816.354 419.761,821.004C421.661,825.654 422.611,831.179 422.611,837.579C422.611,842.079 422.111,846.329 421.111,850.329C420.111,854.329 418.411,857.729 416.011,860.529C413.611,863.329 410.211,865.179 405.811,866.079L424.411,928.179L413.311,928.179L395.461,868.479L376.411,868.479L376.411,928.179L365.011,928.179ZM376.411,860.079L391.861,860.079C396.961,860.079 400.911,859.229 403.711,857.529C406.511,855.829 408.511,853.329 409.711,850.029C410.911,846.729 411.511,842.579 411.511,837.579C411.511,830.079 410.211,824.479 407.611,820.779C405.011,817.079 399.861,815.229 392.161,815.229L376.411,815.229L376.411,860.079Z" style="fill:rgb(88,69,39);fill-rule:nonzero;"/>
                </g>
                <g transform="matrix(1,0,0,1,614.564,92.5708)">
                    <path d="M455.311,928.179L455.311,815.529L432.361,815.529L432.361,806.679L489.061,806.679L489.061,815.529L466.711,815.529L466.711,928.179L455.311,928.179Z" style="fill:rgb(88,69,39);fill-rule:nonzero;"/>
                </g>
                <g transform="matrix(1,0,0,1,615.164,92.5708)">
                    <path d="M511.711,928.556L511.711,888.206L494.311,806.679L505.411,806.679L517.261,874.556L528.961,806.679L540.211,806.679L522.811,888.206L522.811,928.556L511.711,928.556Z" style="fill:rgb(88,69,39);fill-rule:nonzero;"/>
                </g>
            </g>
            <g transform="matrix(0.886969,-8.47091e-18,4.52794e-18,-0.511083,118.21,1398.82)">
                <path d="M811.44,1020.75C811.44,1020.75 811.126,1155.6 946.425,1155.6C1081.72,1155.6 1081.28,1020.75 1081.28,1020.75" style="fill:none;stroke:rgb(254,208,0);stroke-width:11.34px;"/>
            </g>
            <g transform="matrix(-1.0615,-3.44402e-17,-1.84093e-17,-0.717722,1960.58,1620.81)">
                <path d="M1033.67,1176.61C1033.47,1176.07 1033.29,1175.37 1033.13,1174.52C1032.97,1173.67 1032.85,1172.75 1032.76,1171.76C1032.68,1170.77 1032.64,1169.75 1032.65,1168.7C1032.66,1167.65 1032.74,1166.64 1032.9,1165.68C1033.05,1164.72 1033.29,1163.86 1033.6,1163.09C1033.91,1162.33 1034.34,1161.74 1034.86,1161.32C1034.98,1161.22 1035.15,1161.11 1035.35,1160.98C1035.56,1160.86 1035.78,1160.77 1036.02,1160.72C1036.25,1160.68 1036.48,1160.71 1036.7,1160.81C1036.92,1160.92 1037.1,1161.15 1037.23,1161.51C1037.32,1161.75 1037.38,1162.07 1037.41,1162.46C1037.43,1162.85 1037.41,1163.34 1037.33,1163.94C1037.24,1164.54 1037.15,1165.22 1037.06,1166C1036.98,1166.77 1036.93,1167.55 1036.92,1168.33C1036.91,1169.11 1036.93,1169.85 1036.99,1170.56C1037.04,1171.26 1037.16,1171.84 1037.32,1172.3C1037.53,1172.88 1037.79,1173.27 1038.1,1173.47C1038.41,1173.68 1038.79,1173.6 1039.24,1173.25C1039.82,1172.78 1040.37,1171.98 1040.89,1170.84C1041.42,1169.7 1041.9,1168.33 1042.34,1166.71C1042.78,1165.1 1043.17,1163.31 1043.52,1161.35C1043.87,1159.38 1044.15,1157.35 1044.38,1155.25C1044.61,1153.15 1044.77,1151.03 1044.87,1148.88C1044.96,1146.73 1044.98,1144.66 1044.91,1142.69C1044.85,1140.72 1044.7,1138.9 1044.46,1137.22C1044.22,1135.54 1043.89,1134.11 1043.46,1132.94C1042.93,1131.48 1042.24,1130.52 1041.39,1130.06C1040.55,1129.6 1039.52,1129.86 1038.3,1130.83C1037.74,1131.28 1037.01,1132.28 1036.13,1133.82C1035.24,1135.36 1034.54,1136.75 1034.03,1138C1033.52,1139.25 1033.03,1140.57 1032.55,1141.96C1032.08,1143.36 1031.33,1145.69 1029.77,1149.6C1026.06,1158.95 1020.6,1165.02 1020.22,1163C1020.12,1162.45 1021.15,1160.87 1020.92,1160.25C1020.8,1159.91 1026.25,1150.14 1026.14,1149.6C1026.02,1149.07 1027.01,1147.58 1027.1,1146.68C1027.15,1146.3 1027.27,1145.64 1027.45,1144.7C1027.62,1143.76 1027.88,1142.65 1028.2,1141.39C1028.52,1140.13 1028.92,1138.77 1029.4,1137.31C1029.88,1135.84 1030.45,1134.4 1031.1,1132.97C1031.76,1131.55 1032.68,1129.92 1033.87,1128.1C1035.06,1126.27 1036.19,1124.94 1037.26,1124.09C1038.51,1123.09 1039.67,1122.45 1040.72,1122.19C1041.78,1121.93 1042.73,1121.98 1043.59,1122.32C1044.45,1122.67 1045.21,1123.29 1045.88,1124.19C1046.54,1125.09 1047.12,1126.19 1047.6,1127.51C1048.19,1129.15 1048.67,1131.04 1049.01,1133.18C1049.36,1135.33 1049.59,1137.61 1049.69,1140.03C1049.8,1142.44 1049.79,1144.95 1049.66,1147.55C1049.54,1150.14 1049.3,1152.72 1048.95,1155.28C1048.6,1157.84 1048.15,1160.32 1047.58,1162.73C1047.01,1165.14 1046.35,1167.37 1045.58,1169.43C1044.81,1171.48 1043.95,1173.3 1043,1174.89C1042.04,1176.47 1040.99,1177.72 1039.84,1178.64C1039.28,1179.09 1038.7,1179.42 1038.12,1179.64C1037.54,1179.86 1036.98,1179.92 1036.44,1179.81C1035.9,1179.69 1035.4,1179.38 1034.92,1178.87C1034.45,1178.36 1034.03,1177.6 1033.67,1176.61Z" style="fill:rgb(183,18,52);fill-rule:nonzero;"/>
                <path d="M1019.8,1157.47C1020.48,1157.13 1021.08,1156.54 1021.61,1155.7C1022.12,1154.86 1022.53,1153.9 1022.84,1152.82C1023.14,1151.73 1023.31,1150.59 1023.36,1149.41C1023.41,1148.22 1023.32,1147.1 1023.08,1146.05C1022.98,1145.62 1022.86,1145.18 1022.71,1144.74C1022.57,1144.3 1022.39,1143.91 1022.17,1143.59C1021.95,1143.27 1021.69,1143.04 1021.39,1142.91C1021.09,1142.77 1020.74,1142.8 1020.34,1143.01C1020.01,1143.17 1019.69,1143.57 1019.36,1144.2C1019.03,1144.84 1018.71,1145.6 1018.4,1146.48C1018.09,1147.37 1017.81,1148.31 1017.56,1149.31C1017.3,1150.32 1017.09,1151.28 1016.91,1152.21C1016.74,1153.13 1016.61,1153.95 1016.53,1154.66C1016.45,1155.37 1016.44,1155.87 1016.51,1156.15C1016.6,1156.56 1016.78,1156.88 1017.05,1157.12C1017.31,1157.35 1017.61,1157.52 1017.94,1157.62C1018.27,1157.71 1018.61,1157.74 1018.94,1157.7C1019.28,1157.67 1019.57,1157.59 1019.8,1157.47ZM1002.8,1156.76C1002.98,1156.27 1003.21,1155.59 1003.5,1154.72C1003.78,1153.86 1004.12,1152.91 1004.51,1151.88C1004.89,1150.85 1005.31,1149.79 1005.77,1148.71C1006.23,1147.63 1006.71,1146.61 1007.23,1145.66C1007.75,1144.7 1008.28,1143.86 1008.83,1143.14C1009.37,1142.43 1009.93,1141.92 1010.5,1141.64C1011,1141.38 1011.48,1141.33 1011.91,1141.46C1012.35,1141.6 1012.75,1141.87 1013.11,1142.27C1013.46,1142.66 1013.78,1143.15 1014.04,1143.75C1014.31,1144.35 1014.52,1144.99 1014.68,1145.68C1014.78,1146.13 1014.87,1146.58 1014.92,1147.05C1014.98,1147.51 1015,1147.96 1014.99,1148.39C1015.23,1147.27 1015.53,1146.08 1015.88,1144.84C1016.24,1143.59 1016.65,1142.41 1017.13,1141.3C1017.61,1140.18 1018.15,1139.19 1018.76,1138.32C1019.36,1137.46 1020.03,1136.84 1020.77,1136.46C1021.15,1136.27 1021.61,1136.17 1022.17,1136.14C1022.72,1136.11 1023.28,1136.24 1023.85,1136.53C1024.42,1136.82 1024.95,1137.3 1025.44,1137.96C1025.93,1138.62 1026.32,1139.54 1026.59,1140.72C1026.79,1141.6 1026.94,1142.7 1027.04,1144.02C1027.14,1145.33 1027.16,1146.74 1027.09,1148.25C1027.03,1149.75 1026.86,1151.3 1026.58,1152.87C1026.3,1154.45 1025.89,1155.94 1025.34,1157.36C1024.79,1158.77 1024.09,1160.05 1023.23,1161.19C1022.38,1162.33 1021.33,1163.2 1020.1,1163.83C1019.46,1164.15 1018.87,1164.31 1018.34,1164.32C1017.81,1164.32 1017.34,1164.27 1016.94,1164.16C1016.49,1164 1016.07,1163.8 1015.68,1163.53C1015.48,1163.85 1015.27,1164.16 1015.05,1164.46C1014.86,1164.73 1014.67,1164.98 1014.45,1165.21C1014.24,1165.45 1014.05,1165.62 1013.87,1165.7C1013.32,1165.98 1012.82,1165.98 1012.37,1165.71C1011.92,1165.43 1011.63,1165.03 1011.5,1164.49C1011.47,1164.34 1011.45,1164.22 1011.44,1164.12C1011.42,1163.68 1011.42,1163.11 1011.43,1162.41C1011.44,1161.71 1011.45,1160.93 1011.46,1160.07C1011.47,1159.22 1011.48,1158.33 1011.49,1157.4C1011.49,1156.48 1011.48,1155.58 1011.46,1154.7C1011.44,1153.83 1011.4,1153.01 1011.34,1152.27C1011.28,1151.52 1011.19,1150.89 1011.08,1150.4C1010.93,1149.76 1010.74,1149.26 1010.49,1148.92C1010.25,1148.57 1009.96,1148.49 1009.61,1148.66C1009.39,1148.77 1009.16,1149 1008.91,1149.36C1008.66,1149.71 1008.4,1150.15 1008.13,1150.67C1007.86,1151.18 1007.59,1151.76 1007.32,1152.38C1007.05,1153.01 1006.79,1153.64 1006.55,1154.26C1005.98,1155.75 1005.4,1157.4 1004.8,1159.24C1004.64,1159.63 1004.44,1159.89 1004.23,1160C1003.94,1160.14 1003.64,1160.06 1003.35,1159.74C1003.06,1159.42 1002.85,1159 1002.74,1158.48C1002.6,1157.88 1002.62,1157.31 1002.8,1156.76Z" style="fill:rgb(183,18,52);fill-rule:nonzero;"/>
                <path d="M1000.47,1156.9C1000.56,1156.34 1000.63,1155.69 1000.68,1154.96C1000.74,1154.24 1000.73,1153.61 1000.65,1153.08C1000.6,1152.74 1000.51,1152.49 1000.39,1152.32C1000.27,1152.15 1000.09,1152.11 999.833,1152.19C999.519,1152.3 999.147,1152.56 998.717,1153C998.287,1153.43 997.833,1153.96 997.354,1154.59C996.876,1155.23 996.385,1155.93 995.882,1156.71C995.378,1157.49 994.882,1158.29 994.393,1159.12C993.903,1159.94 993.44,1160.75 993.004,1161.56C992.567,1162.36 992.179,1163.1 991.839,1163.77C991.743,1163.96 991.617,1164.12 991.462,1164.24C991.307,1164.36 991.17,1164.44 991.05,1164.48C990.751,1164.58 990.481,1164.51 990.24,1164.26C989.999,1164.01 989.84,1163.63 989.764,1163.13C989.694,1162.66 989.721,1162.11 989.844,1161.46C989.967,1160.82 990.25,1160.13 990.691,1159.41C991.453,1157.79 992.232,1156.23 993.03,1154.74C993.827,1153.25 994.641,1151.89 995.472,1150.68C996.303,1149.47 997.154,1148.44 998.025,1147.6C998.896,1146.75 999.781,1146.18 1000.68,1145.89C1001.29,1145.69 1001.82,1145.64 1002.27,1145.75C1002.72,1145.86 1003.1,1146.08 1003.41,1146.42C1003.72,1146.76 1003.97,1147.2 1004.16,1147.74C1004.35,1148.29 1004.5,1148.88 1004.59,1149.52C1004.75,1150.6 1004.81,1151.75 1004.77,1152.96C1004.72,1154.17 1004.62,1155.31 1004.46,1156.36C1004.2,1158.25 1003.92,1160.14 1003.64,1162.03C1003.36,1163.91 1003.1,1165.63 1002.86,1167.19L999.266,1190.85C999.126,1191.8 998.854,1192.53 998.451,1193.03C998.047,1193.53 997.614,1193.86 997.15,1194.01C996.686,1194.16 996.234,1194.12 995.796,1193.86C995.358,1193.61 995.076,1193.07 994.95,1192.23C994.89,1191.83 994.891,1191.38 994.952,1190.9C995.013,1190.42 995.102,1189.89 995.22,1189.32C995.439,1188.15 995.693,1186.73 995.984,1185.06C996.275,1183.38 996.583,1181.56 996.909,1179.6C997.235,1177.63 997.565,1175.59 997.899,1173.47C998.233,1171.35 998.56,1169.29 998.879,1167.28C999.198,1165.27 999.494,1163.37 999.767,1161.57C1000.04,1159.77 1000.27,1158.22 1000.47,1156.9Z" style="fill:rgb(183,18,52);fill-rule:nonzero;"/>
                <path d="M988.666,1180.32C988.722,1180.83 988.715,1181.38 988.645,1181.96C988.576,1182.54 988.436,1183.08 988.227,1183.59C988.018,1184.1 987.736,1184.54 987.382,1184.92C987.027,1185.31 986.584,1185.56 986.055,1185.68C985.176,1185.89 984.536,1185.78 984.133,1185.36C983.731,1184.94 983.488,1184.35 983.406,1183.59C983.36,1183.16 983.367,1182.68 983.425,1182.14C983.483,1181.6 983.602,1181.08 983.782,1180.59C983.962,1180.1 984.218,1179.66 984.55,1179.29C984.882,1178.91 985.298,1178.66 985.797,1178.55C986.736,1178.33 987.418,1178.39 987.844,1178.74C988.27,1179.08 988.544,1179.61 988.666,1180.32ZM990.35,1172.17C990.16,1172.86 989.913,1173.37 989.609,1173.72C989.305,1174.07 988.979,1174.28 988.63,1174.37C988.055,1174.5 987.53,1174.34 987.054,1173.89C986.578,1173.44 986.295,1172.79 986.203,1171.94C986.196,1171.74 986.194,1171.53 986.195,1171.32C986.196,1171.12 986.223,1170.9 986.277,1170.68C986.426,1170.05 986.547,1169.52 986.64,1169.08C986.733,1168.65 986.817,1168.24 986.894,1167.87C986.97,1167.49 987.043,1167.13 987.112,1166.77C987.182,1166.4 987.267,1165.97 987.368,1165.46C987.49,1164.86 987.628,1164.2 987.784,1163.49C987.94,1162.78 988.083,1162.05 988.212,1161.31C988.342,1160.56 988.442,1159.84 988.514,1159.13C988.585,1158.43 988.591,1157.79 988.53,1157.23C988.465,1156.63 988.32,1156.26 988.095,1156.11C987.87,1155.97 987.569,1155.94 987.19,1156.04C986.766,1156.13 986.338,1156.37 985.905,1156.75C985.472,1157.13 985.044,1157.59 984.62,1158.12C984.197,1158.66 983.787,1159.25 983.392,1159.91C982.997,1160.57 982.629,1161.22 982.288,1161.88C981.947,1162.53 981.634,1163.15 981.349,1163.75C981.064,1164.35 980.83,1164.87 980.646,1165.33C980.389,1165.83 980.109,1166.11 979.806,1166.18C979.534,1166.25 979.291,1166.12 979.078,1165.8C978.865,1165.48 978.729,1165.05 978.669,1164.49C978.613,1163.97 978.641,1163.4 978.752,1162.78C978.864,1162.15 979.088,1161.54 979.427,1160.93C980.073,1159.59 980.74,1158.29 981.428,1157.03C982.116,1155.78 982.836,1154.64 983.588,1153.63C984.341,1152.61 985.114,1151.76 985.909,1151.07C986.704,1150.37 987.533,1149.93 988.396,1149.72C989.622,1149.43 990.638,1149.67 991.442,1150.43C992.246,1151.2 992.755,1152.56 992.967,1154.54C993.078,1155.57 993.089,1156.6 992.998,1157.63C992.907,1158.66 992.776,1159.67 992.603,1160.67C992.431,1161.66 992.24,1162.62 992.03,1163.56C991.82,1164.49 991.652,1165.37 991.524,1166.21C991.48,1166.52 991.395,1167 991.271,1167.64C991.147,1168.29 991.013,1168.96 990.869,1169.63C990.706,1170.43 990.533,1171.28 990.35,1172.17Z" style="fill:rgb(183,18,52);fill-rule:nonzero;"/>
                <path d="M965.552,1174.21C966.342,1174.05 967.091,1173.91 967.799,1173.78C968.507,1173.65 969.197,1173.53 969.867,1173.42C970.538,1173.31 971.201,1173.21 971.857,1173.11C972.513,1173.01 973.177,1172.91 973.848,1172.82C974.167,1171.61 974.523,1170.2 974.915,1168.61C975.308,1167.01 975.719,1165.34 976.147,1163.59C976.576,1161.84 977.004,1160.07 977.43,1158.29C977.856,1156.5 978.262,1154.81 978.647,1153.22C979.032,1151.62 979.382,1150.18 979.695,1148.89C980.009,1147.6 980.263,1146.58 980.458,1145.82C980.591,1145.28 980.764,1144.77 980.979,1144.29C981.193,1143.82 981.434,1143.4 981.703,1143.04C981.971,1142.68 982.253,1142.39 982.546,1142.18C982.84,1141.96 983.116,1141.84 983.376,1141.8C983.742,1141.75 984.079,1141.83 984.387,1142.06C984.696,1142.29 984.87,1142.7 984.909,1143.28C984.929,1143.58 984.907,1143.93 984.842,1144.34C984.777,1144.74 984.678,1145.22 984.545,1145.76L978.18,1172.28L979.393,1172.1C980.232,1171.97 980.817,1172.08 981.148,1172.42C981.48,1172.76 981.663,1173.19 981.698,1173.7C981.734,1174.25 981.579,1174.8 981.232,1175.36C980.885,1175.93 980.345,1176.26 979.613,1176.37L976.913,1176.77C976.048,1180.16 975.141,1182.98 974.192,1185.24C973.243,1187.5 972.284,1189.32 971.313,1190.69C970.343,1192.07 969.374,1193.07 968.407,1193.69C967.44,1194.31 966.498,1194.69 965.583,1194.82C965.156,1194.89 964.739,1194.82 964.333,1194.63C963.928,1194.44 963.559,1194.12 963.228,1193.67C962.897,1193.22 962.614,1192.62 962.38,1191.9C962.146,1191.17 961.994,1190.3 961.926,1189.28C961.86,1188.31 961.879,1187.22 961.983,1186.02C962.007,1185.7 962.081,1185.42 962.203,1185.19C962.326,1184.95 962.467,1184.76 962.626,1184.6C962.784,1184.43 962.946,1184.32 963.11,1184.23C963.274,1184.15 963.417,1184.1 963.539,1184.08C963.844,1184.04 964.133,1184.11 964.407,1184.28C964.681,1184.46 964.833,1184.77 964.864,1185.22C964.884,1185.52 964.891,1185.79 964.884,1186.04C964.878,1186.29 964.884,1186.54 964.901,1186.79C964.965,1187.74 965.129,1188.4 965.393,1188.77C965.657,1189.14 965.987,1189.29 966.384,1189.24C966.857,1189.16 967.389,1188.78 967.981,1188.08C968.573,1187.37 969.159,1186.47 969.738,1185.35C970.318,1184.24 970.862,1183 971.369,1181.61C971.876,1180.22 972.275,1178.83 972.564,1177.41L967.232,1178.2C966.759,1178.28 966.316,1178.33 965.902,1178.37C965.489,1178.41 965.122,1178.39 964.802,1178.33C964.481,1178.26 964.225,1178.11 964.032,1177.88C963.839,1177.64 963.725,1177.28 963.692,1176.78C963.675,1176.53 963.689,1176.28 963.733,1176.02C963.777,1175.77 963.864,1175.52 963.995,1175.28C964.125,1175.05 964.315,1174.84 964.565,1174.65C964.814,1174.47 965.143,1174.32 965.552,1174.21Z" style="fill:rgb(183,18,52);fill-rule:nonzero;"/>
                <path d="M960.196,1173.89C960.916,1173.85 961.603,1173.54 962.255,1172.97C962.908,1172.4 963.48,1171.67 963.97,1170.76C964.461,1169.86 964.845,1168.85 965.123,1167.74C965.4,1166.62 965.524,1165.48 965.494,1164.33C965.483,1163.9 965.447,1163.43 965.388,1162.92C965.329,1162.41 965.221,1161.94 965.064,1161.51C964.907,1161.08 964.686,1160.72 964.403,1160.44C964.119,1160.16 963.748,1160.04 963.288,1160.06C962.583,1160.1 961.905,1160.42 961.253,1161.01C960.601,1161.61 960.026,1162.37 959.528,1163.29C959.031,1164.21 958.644,1165.25 958.367,1166.4C958.09,1167.55 957.967,1168.71 957.997,1169.86C958.009,1170.32 958.04,1170.79 958.091,1171.27C958.142,1171.76 958.246,1172.2 958.402,1172.6C958.558,1173 958.777,1173.32 959.06,1173.56C959.343,1173.81 959.721,1173.92 960.196,1173.89ZM959.157,1179.94C958.575,1179.97 957.948,1179.9 957.275,1179.71C956.603,1179.52 955.976,1179.17 955.395,1178.66C954.814,1178.15 954.324,1177.45 953.925,1176.58C953.527,1175.71 953.31,1174.61 953.276,1173.3C953.258,1172.62 953.299,1171.84 953.399,1170.96C953.499,1170.08 953.659,1169.16 953.879,1168.19C953.719,1167.93 953.538,1167.75 953.335,1167.64C953.133,1167.54 952.917,1167.5 952.688,1167.51C952.366,1167.53 952.013,1167.68 951.629,1167.98C951.246,1168.27 950.853,1168.65 950.45,1169.1C950.048,1169.56 949.647,1170.07 949.247,1170.63C948.848,1171.2 948.471,1171.77 948.118,1172.33C947.764,1172.9 947.445,1173.43 947.159,1173.94C946.872,1174.44 946.634,1174.87 946.444,1175.22C946.341,1175.38 946.213,1175.47 946.059,1175.48C945.845,1175.49 945.649,1175.34 945.472,1175.02C945.295,1174.7 945.199,1174.25 945.183,1173.66C945.168,1173.07 945.269,1172.38 945.486,1171.6C945.704,1170.81 946.123,1169.98 946.745,1169.11C947.097,1168.5 947.501,1167.8 947.956,1167C948.411,1166.2 948.897,1165.45 949.416,1164.74C949.934,1164.03 950.478,1163.41 951.048,1162.91C951.618,1162.4 952.194,1162.13 952.776,1162.09C953.175,1162.07 953.564,1162.14 953.944,1162.3C954.324,1162.46 954.711,1162.73 955.105,1163.12C955.623,1161.82 956.221,1160.62 956.899,1159.54C957.576,1158.46 958.338,1157.52 959.184,1156.72C960.031,1155.93 960.95,1155.29 961.943,1154.81C962.935,1154.34 963.999,1154.07 965.132,1154C965.561,1153.98 966.063,1154.07 966.636,1154.29C967.209,1154.51 967.76,1154.89 968.289,1155.44C968.817,1155.99 969.269,1156.71 969.646,1157.62C970.023,1158.53 970.229,1159.66 970.263,1160.99C970.287,1161.9 970.216,1162.99 970.05,1164.27C969.884,1165.55 969.615,1166.88 969.244,1168.25C968.874,1169.62 968.395,1170.99 967.809,1172.35C967.223,1173.71 966.515,1174.94 965.685,1176.05C964.854,1177.15 963.896,1178.05 962.809,1178.76C961.723,1179.47 960.506,1179.86 959.157,1179.94Z" style="fill:rgb(183,18,52);fill-rule:nonzero;"/>
                <path d="M940.61,1175.36C940.003,1175.88 939.377,1176.36 938.733,1176.79C938.088,1177.21 937.464,1177.58 936.861,1177.89C936.257,1178.19 935.682,1178.43 935.134,1178.6C934.586,1178.77 934.098,1178.85 933.669,1178.83C932.979,1178.81 932.451,1178.54 932.084,1178.04C931.717,1177.54 931.544,1176.71 931.565,1175.55C931.569,1175.3 931.582,1175.04 931.602,1174.75C931.623,1174.47 931.659,1174.17 931.71,1173.86C931.797,1173.27 932.04,1172.59 932.437,1171.81C932.835,1171.03 933.298,1170.22 933.827,1169.38C934.356,1168.54 934.923,1167.69 935.529,1166.84C936.135,1165.99 936.693,1165.21 937.204,1164.49C937.716,1163.78 938.141,1163.15 938.48,1162.62C938.82,1162.09 938.991,1161.72 938.995,1161.52C938.998,1161.34 938.993,1161.21 938.979,1161.14C938.964,1161.08 938.896,1161.04 938.773,1161.03C937.936,1161.52 937.002,1162.12 935.969,1162.81C934.937,1163.51 933.908,1164.22 932.882,1164.95C931.857,1165.68 930.885,1166.4 929.968,1167.1C929.05,1167.8 928.272,1168.41 927.634,1168.93C927.494,1169.04 927.351,1169.13 927.204,1169.21C927.057,1169.28 926.922,1169.31 926.799,1169.31C926.523,1169.3 926.296,1169.15 926.117,1168.87C925.938,1168.59 925.852,1168.23 925.86,1167.78C925.87,1167.25 926.03,1166.66 926.341,1166.01C926.652,1165.35 927.166,1164.67 927.884,1163.98C928.429,1163.5 929.041,1162.96 929.719,1162.36C930.397,1161.77 931.106,1161.15 931.846,1160.51C932.586,1159.87 933.334,1159.24 934.088,1158.64C934.843,1158.03 935.57,1157.49 936.268,1157.02C936.967,1156.55 937.622,1156.17 938.233,1155.89C938.844,1155.61 939.372,1155.48 939.816,1155.49C940.874,1155.54 941.66,1155.94 942.176,1156.71C942.691,1157.48 942.938,1158.45 942.917,1159.63C942.914,1159.81 942.904,1159.95 942.887,1160.04C942.762,1161.03 942.545,1161.99 942.237,1162.9C941.929,1163.82 941.584,1164.69 941.201,1165.52C940.818,1166.34 940.42,1167.13 940.008,1167.87C939.596,1168.61 939.219,1169.31 938.878,1169.97C938.536,1170.62 938.253,1171.23 938.028,1171.79C937.804,1172.35 937.687,1172.87 937.679,1173.34C937.676,1173.46 937.69,1173.57 937.718,1173.68C937.747,1173.8 937.815,1173.86 937.922,1173.86C938.106,1173.87 938.411,1173.78 938.836,1173.59C939.261,1173.4 939.714,1173.15 940.196,1172.83C940.677,1172.51 941.136,1172.13 941.573,1171.71C942.01,1171.28 942.325,1170.83 942.518,1170.33C942.775,1169.71 943.073,1168.91 943.412,1167.95C943.751,1166.99 944.103,1165.98 944.467,1164.93C944.831,1163.88 945.183,1162.84 945.524,1161.81C945.864,1160.78 946.156,1159.89 946.4,1159.15C946.595,1158.5 946.847,1157.92 947.156,1157.41C947.464,1156.9 947.797,1156.48 948.157,1156.13C948.516,1155.78 948.881,1155.51 949.252,1155.32C949.624,1155.13 949.963,1155.04 950.269,1155.05C950.622,1155.07 950.899,1155.21 951.101,1155.49C951.303,1155.77 951.399,1156.22 951.388,1156.83C951.384,1157.08 951.351,1157.39 951.291,1157.76C951.23,1158.14 951.112,1158.55 950.935,1158.99C950.645,1159.75 950.351,1160.58 950.051,1161.48C949.751,1162.37 949.407,1163.39 949.018,1164.55C948.629,1165.7 948.18,1167.02 947.67,1168.51C947.16,1170 946.558,1171.72 945.864,1173.66C946.073,1173.94 946.247,1174.29 946.386,1174.69C946.524,1175.09 946.588,1175.59 946.578,1176.17C946.568,1176.72 946.483,1177.19 946.323,1177.58C946.162,1177.97 945.949,1178.28 945.684,1178.52C945.419,1178.76 945.113,1178.94 944.766,1179.05C944.419,1179.16 944.054,1179.21 943.671,1179.19C943.272,1179.18 942.875,1179.11 942.478,1178.99C942.081,1178.87 941.728,1178.71 941.417,1178.49C941.106,1178.28 940.854,1178.02 940.66,1177.71C940.466,1177.41 940.373,1177.07 940.38,1176.68C940.381,1176.61 940.398,1176.52 940.43,1176.41C940.463,1176.3 940.5,1176.17 940.541,1176.04C940.581,1175.91 940.618,1175.78 940.651,1175.67C940.683,1175.56 940.7,1175.47 940.702,1175.4C940.702,1175.36 940.695,1175.33 940.68,1175.33L940.657,1175.33L940.61,1175.36Z" style="fill:rgb(183,18,52);fill-rule:nonzero;"/>
                <path d="M924.459,1175.23C924.082,1176.15 923.647,1176.81 923.155,1177.21C922.662,1177.61 922.195,1177.77 921.753,1177.7C921.387,1177.64 921.074,1177.39 920.814,1176.95C920.554,1176.5 920.453,1175.9 920.51,1175.13C920.532,1174.84 920.578,1174.53 920.649,1174.2C920.72,1173.87 920.831,1173.52 920.981,1173.16C920.599,1173.73 920.071,1174.3 919.396,1174.87C918.722,1175.43 917.987,1175.91 917.193,1176.32C916.399,1176.73 915.59,1177.03 914.764,1177.24C913.939,1177.45 913.168,1177.49 912.452,1177.38C911.644,1177.25 910.991,1176.85 910.493,1176.18C909.995,1175.52 909.797,1174.5 909.9,1173.13C909.96,1172.32 910.107,1171.48 910.341,1170.63C910.574,1169.78 910.857,1168.94 911.189,1168.1C911.521,1167.27 911.883,1166.45 912.274,1165.66C912.665,1164.87 913.048,1164.13 913.423,1163.44C913.799,1162.74 914.143,1162.11 914.456,1161.53C914.769,1160.96 915.017,1160.48 915.2,1160.1C915.425,1159.77 915.555,1159.37 915.59,1158.9C915.604,1158.72 915.577,1158.55 915.511,1158.4C915.445,1158.26 915.328,1158.17 915.161,1158.14C915.054,1158.12 914.931,1158.12 914.791,1158.13C914.651,1158.14 914.475,1158.24 914.262,1158.4C913.405,1158.72 912.521,1159.15 911.609,1159.68C910.698,1160.22 909.818,1160.8 908.969,1161.42C908.12,1162.05 907.336,1162.69 906.616,1163.33C905.897,1163.98 905.294,1164.57 904.806,1165.11C904.672,1165.25 904.542,1165.34 904.415,1165.39C904.288,1165.43 904.171,1165.45 904.065,1165.43C903.806,1165.39 903.615,1165.21 903.492,1164.89C903.369,1164.58 903.324,1164.19 903.358,1163.74C903.41,1163.04 903.617,1162.29 903.978,1161.48C904.339,1160.67 904.867,1159.95 905.563,1159.31C906.501,1158.53 907.36,1157.81 908.141,1157.17C908.922,1156.52 909.715,1155.92 910.519,1155.38C911.323,1154.84 912.177,1154.35 913.081,1153.92C913.985,1153.48 915.035,1153.11 916.23,1152.81C916.64,1152.69 917.012,1152.61 917.346,1152.58C917.681,1152.54 917.985,1152.55 918.259,1152.59C919.067,1152.72 919.633,1153.15 919.957,1153.88C920.28,1154.6 920.398,1155.56 920.308,1156.76C920.297,1156.91 920.281,1157.07 920.263,1157.21C920.244,1157.36 920.221,1157.52 920.192,1157.7C920.109,1158.39 919.926,1159.14 919.643,1159.93C919.36,1160.73 919.029,1161.55 918.651,1162.37C918.273,1163.2 917.876,1164.02 917.461,1164.83C917.046,1165.64 916.66,1166.41 916.305,1167.14C915.95,1167.87 915.651,1168.52 915.407,1169.1C915.163,1169.67 915.027,1170.15 914.999,1170.54C914.974,1170.88 915.017,1171.17 915.129,1171.43C915.241,1171.69 915.426,1171.84 915.685,1171.88C916.661,1172.04 917.618,1171.76 918.559,1171.05C919.499,1170.34 920.397,1169.42 921.252,1168.29C922.108,1167.16 922.908,1165.95 923.652,1164.66C924.396,1163.37 925.054,1162.21 925.624,1161.18C925.984,1160.49 926.322,1159.74 926.636,1158.94C926.951,1158.13 927.273,1157.39 927.602,1156.7C927.931,1156.01 928.285,1155.45 928.664,1155.03C929.043,1154.6 929.492,1154.42 930.01,1154.51C930.543,1154.6 930.944,1154.91 931.212,1155.46C931.479,1156 931.586,1156.64 931.532,1157.36C931.504,1157.74 931.351,1158.34 931.074,1159.17C930.796,1159.99 930.448,1160.93 930.028,1162.01C929.609,1163.08 929.141,1164.23 928.625,1165.46C928.11,1166.68 927.595,1167.9 927.08,1169.11C926.566,1170.31 926.076,1171.45 925.611,1172.51C925.146,1173.58 924.762,1174.48 924.459,1175.23Z" style="fill:rgb(183,18,52);fill-rule:nonzero;"/>
                <path d="M898.691,1178.89C898.625,1179.4 898.492,1179.91 898.293,1180.42C898.094,1180.93 897.838,1181.37 897.524,1181.74C897.21,1182.12 896.842,1182.39 896.421,1182.57C895.999,1182.75 895.525,1182.77 894.998,1182.62C894.124,1182.37 893.547,1181.95 893.266,1181.35C892.985,1180.75 892.894,1180.07 892.992,1179.31C893.047,1178.89 893.164,1178.44 893.344,1177.96C893.523,1177.48 893.754,1177.05 894.037,1176.68C894.319,1176.31 894.66,1176.03 895.059,1175.85C895.458,1175.66 895.906,1175.64 896.402,1175.78C897.336,1176.04 897.963,1176.45 898.283,1176.99C898.603,1177.53 898.739,1178.16 898.691,1178.89ZM902.153,1172.08C901.816,1172.63 901.464,1172.99 901.098,1173.16C900.732,1173.34 900.376,1173.38 900.03,1173.28C899.458,1173.11 899,1172.7 898.657,1172.04C898.314,1171.37 898.197,1170.62 898.307,1169.77C898.348,1169.58 898.393,1169.38 898.442,1169.19C898.491,1168.99 898.566,1168.81 898.667,1168.63C898.953,1168.11 899.19,1167.67 899.378,1167.31C899.565,1166.94 899.738,1166.61 899.896,1166.29C900.054,1165.98 900.207,1165.67 900.356,1165.37C900.505,1165.06 900.685,1164.7 900.896,1164.27C901.149,1163.77 901.431,1163.22 901.743,1162.63C902.054,1162.04 902.356,1161.42 902.649,1160.79C902.942,1160.16 903.203,1159.53 903.433,1158.9C903.663,1158.27 903.814,1157.68 903.887,1157.12C903.965,1156.52 903.915,1156.1 903.736,1155.85C903.557,1155.6 903.28,1155.43 902.903,1155.32C902.482,1155.2 902.024,1155.21 901.53,1155.35C901.036,1155.48 900.528,1155.69 900.006,1155.99C899.485,1156.28 898.962,1156.63 898.44,1157.05C897.917,1157.46 897.42,1157.89 896.949,1158.34C896.477,1158.78 896.039,1159.21 895.633,1159.63C895.228,1160.04 894.886,1160.42 894.608,1160.75C894.252,1161.09 893.924,1161.22 893.622,1161.13C893.351,1161.06 893.153,1160.81 893.026,1160.41C892.899,1160 892.872,1159.52 892.944,1158.96C893.011,1158.45 893.168,1157.93 893.417,1157.4C893.665,1156.87 894.018,1156.41 894.476,1156.01C895.395,1155.07 896.322,1154.18 897.257,1153.35C898.193,1152.52 899.131,1151.82 900.073,1151.24C901.014,1150.67 901.938,1150.25 902.845,1150C903.752,1149.75 904.635,1149.75 905.493,1149.99C906.713,1150.34 907.612,1151.08 908.192,1152.2C908.772,1153.32 908.935,1154.86 908.68,1156.82C908.547,1157.85 908.319,1158.82 907.996,1159.75C907.673,1160.67 907.315,1161.56 906.924,1162.4C906.533,1163.25 906.131,1164.06 905.719,1164.83C905.306,1165.6 904.944,1166.35 904.631,1167.07C904.518,1167.34 904.329,1167.75 904.062,1168.29C903.796,1168.84 903.517,1169.4 903.225,1169.96C902.889,1170.63 902.531,1171.33 902.153,1172.08Z" style="fill:rgb(183,18,52);fill-rule:nonzero;"/>
                <path d="M884.588,1162.94C885.278,1163.25 885.999,1163.28 886.751,1163.05C887.503,1162.81 888.215,1162.38 888.887,1161.76C889.558,1161.13 890.148,1160.36 890.655,1159.44C891.163,1158.51 891.525,1157.52 891.741,1156.46C891.83,1156.02 891.903,1155.56 891.961,1155.08C892.019,1154.6 892.022,1154.13 891.969,1153.68C891.917,1153.23 891.796,1152.82 891.606,1152.45C891.417,1152.09 891.117,1151.81 890.705,1151.63C890.382,1151.48 889.961,1151.53 889.442,1151.76C888.923,1151.99 888.365,1152.33 887.767,1152.79C887.17,1153.25 886.571,1153.77 885.969,1154.37C885.368,1154.97 884.813,1155.57 884.306,1156.17C883.8,1156.77 883.374,1157.33 883.03,1157.84C882.686,1158.35 882.486,1158.75 882.428,1159.03C882.345,1159.44 882.364,1159.86 882.486,1160.28C882.609,1160.7 882.785,1161.1 883.016,1161.46C883.246,1161.82 883.507,1162.13 883.799,1162.39C884.09,1162.65 884.353,1162.83 884.588,1162.94ZM871.032,1147.75C871.371,1147.5 871.828,1147.14 872.401,1146.69C872.974,1146.23 873.62,1145.75 874.34,1145.24C875.06,1144.73 875.817,1144.23 876.613,1143.75C877.408,1143.26 878.204,1142.85 879,1142.52C879.796,1142.18 880.558,1141.96 881.286,1141.85C882.014,1141.73 882.664,1141.8 883.236,1142.06C883.75,1142.28 884.158,1142.64 884.459,1143.13C884.76,1143.62 884.978,1144.18 885.115,1144.81C885.251,1145.44 885.311,1146.11 885.293,1146.82C885.276,1147.54 885.197,1148.24 885.056,1148.94C884.963,1149.39 884.85,1149.84 884.715,1150.26C884.58,1150.69 884.422,1151.07 884.24,1151.42C884.88,1150.71 885.589,1150 886.365,1149.29C887.142,1148.58 887.945,1147.98 888.774,1147.48C889.603,1146.99 890.433,1146.65 891.264,1146.46C892.094,1146.27 892.884,1146.34 893.633,1146.68C894.015,1146.85 894.436,1147.16 894.896,1147.61C895.356,1148.07 895.761,1148.65 896.11,1149.38C896.459,1150.1 896.704,1150.94 896.845,1151.91C896.986,1152.87 896.935,1153.95 896.692,1155.14C896.511,1156.03 896.203,1157.06 895.768,1158.21C895.333,1159.37 894.792,1160.53 894.146,1161.7C893.5,1162.87 892.755,1163.98 891.91,1165.02C891.065,1166.07 890.142,1166.93 889.139,1167.61C888.136,1168.29 887.063,1168.72 885.92,1168.91C884.776,1169.1 883.581,1168.92 882.333,1168.36C881.686,1168.08 881.145,1167.71 880.709,1167.25C880.273,1166.8 879.915,1166.35 879.635,1165.92C879.324,1165.4 879.063,1164.88 878.853,1164.33C878.564,1164.42 878.269,1164.49 877.97,1164.54C877.719,1164.6 877.46,1164.63 877.193,1164.64C876.927,1164.65 876.705,1164.62 876.529,1164.54C875.971,1164.29 875.562,1163.86 875.303,1163.25C875.043,1162.64 874.968,1162.06 875.078,1161.52C875.109,1161.37 875.141,1161.25 875.173,1161.17C875.331,1160.79 875.55,1160.32 875.832,1159.76C876.115,1159.19 876.43,1158.57 876.777,1157.88C877.125,1157.2 877.483,1156.48 877.851,1155.73C878.219,1154.99 878.565,1154.25 878.89,1153.51C879.215,1152.78 879.501,1152.09 879.747,1151.43C879.993,1150.77 880.167,1150.19 880.268,1149.69C880.401,1149.04 880.437,1148.46 880.376,1147.98C880.315,1147.49 880.109,1147.16 879.756,1147.01C879.536,1146.91 879.254,1146.9 878.911,1146.97C878.568,1147.04 878.185,1147.17 877.762,1147.37C877.339,1147.56 876.895,1147.79 876.43,1148.07C875.965,1148.35 875.51,1148.64 875.065,1148.94C874.022,1149.66 872.897,1150.51 871.689,1151.49C871.397,1151.66 871.141,1151.7 870.921,1151.61C870.627,1151.48 870.424,1151.15 870.312,1150.64C870.2,1150.13 870.197,1149.61 870.302,1149.09C870.426,1148.49 870.669,1148.04 871.032,1147.75Z" style="fill:rgb(183,18,52);fill-rule:nonzero;"/>
                <path d="M865.658,1155.75C865.093,1156.42 864.532,1156.82 863.977,1156.95C863.423,1157.08 862.946,1157 862.546,1156.71C862.216,1156.47 861.979,1156.07 861.836,1155.53C861.693,1154.98 861.736,1154.36 861.966,1153.67C862.054,1153.4 862.169,1153.13 862.312,1152.86C862.455,1152.59 862.638,1152.31 862.863,1152.05C862.371,1152.4 861.744,1152.67 860.98,1152.86C860.216,1153.05 859.414,1153.14 858.574,1153.12C857.734,1153.1 856.902,1152.99 856.078,1152.77C855.254,1152.55 854.519,1152.2 853.872,1151.73C853.143,1151.2 852.62,1150.5 852.303,1149.63C851.987,1148.75 852.035,1147.69 852.448,1146.45C852.691,1145.72 853.02,1145.01 853.435,1144.33C853.85,1143.64 854.31,1142.99 854.814,1142.37C855.319,1141.76 855.846,1141.17 856.395,1140.62C856.944,1140.07 857.475,1139.57 857.987,1139.11C858.499,1138.65 858.969,1138.22 859.395,1137.84C859.822,1137.45 860.165,1137.13 860.425,1136.86C860.712,1136.66 860.926,1136.35 861.068,1135.93C861.122,1135.76 861.135,1135.6 861.107,1135.42C861.079,1135.25 860.989,1135.11 860.837,1135C860.741,1134.93 860.626,1134.87 860.492,1134.81C860.358,1134.75 860.171,1134.74 859.931,1134.8C859.053,1134.66 858.123,1134.62 857.143,1134.67C856.163,1134.71 855.201,1134.82 854.259,1134.98C853.317,1135.14 852.434,1135.35 851.608,1135.59C850.783,1135.84 850.08,1136.09 849.498,1136.35C849.341,1136.41 849.197,1136.44 849.067,1136.42C848.936,1136.4 848.823,1136.35 848.727,1136.28C848.493,1136.11 848.354,1135.85 848.311,1135.49C848.268,1135.13 848.315,1134.75 848.45,1134.34C848.659,1133.71 849.027,1133.1 849.552,1132.53C850.077,1131.95 850.74,1131.53 851.541,1131.28C852.603,1131.02 853.576,1130.77 854.459,1130.56C855.343,1130.34 856.225,1130.18 857.105,1130.07C857.986,1129.97 858.901,1129.94 859.851,1129.98C860.801,1130.03 861.874,1130.21 863.068,1130.52C863.48,1130.62 863.848,1130.73 864.171,1130.87C864.494,1131 864.779,1131.16 865.027,1131.34C865.756,1131.87 866.19,1132.55 866.327,1133.4C866.465,1134.24 866.355,1135.21 865.997,1136.29C865.949,1136.43 865.9,1136.56 865.85,1136.69C865.799,1136.82 865.739,1136.96 865.672,1137.11C865.435,1137.72 865.091,1138.33 864.642,1138.94C864.192,1139.55 863.694,1140.14 863.148,1140.73C862.603,1141.32 862.041,1141.89 861.465,1142.45C860.888,1143 860.349,1143.53 859.847,1144.04C859.346,1144.55 858.914,1145.01 858.553,1145.43C858.191,1145.85 857.953,1146.23 857.838,1146.58C857.737,1146.88 857.709,1147.19 857.755,1147.49C857.801,1147.78 857.941,1148.02 858.175,1148.19C859.056,1148.83 860.02,1149.05 861.069,1148.85C862.117,1148.65 863.173,1148.24 864.236,1147.61C865.299,1146.98 866.329,1146.24 867.326,1145.4C868.324,1144.56 869.208,1143.8 869.98,1143.12C870.478,1142.65 870.967,1142.11 871.448,1141.51C871.928,1140.92 872.402,1140.38 872.87,1139.89C873.337,1139.41 873.798,1139.07 874.253,1138.85C874.708,1138.64 875.17,1138.7 875.638,1139.04C876.12,1139.39 876.424,1139.89 876.55,1140.54C876.677,1141.19 876.632,1141.84 876.416,1142.49C876.301,1142.84 876.018,1143.32 875.569,1143.96C875.119,1144.59 874.574,1145.31 873.933,1146.11C873.293,1146.9 872.589,1147.75 871.822,1148.64C871.054,1149.54 870.291,1150.43 869.53,1151.3C868.77,1152.18 868.049,1153 867.367,1153.77C866.685,1154.53 866.115,1155.19 865.658,1155.75Z" style="fill:rgb(183,18,52);fill-rule:nonzero;"/>
                <path d="M842.923,1135.36C842.419,1133.99 842.037,1132.61 841.776,1131.23C841.515,1129.85 841.365,1128.52 841.327,1127.24C841.289,1125.96 841.36,1124.77 841.538,1123.66C841.717,1122.56 841.998,1121.58 842.383,1120.73C842.869,1119.66 843.514,1118.9 844.316,1118.45C845.119,1118.01 845.989,1117.82 846.927,1117.89C847.864,1117.96 848.833,1118.27 849.834,1118.81C850.834,1119.35 851.774,1120.06 852.652,1120.93C853.315,1121.58 853.909,1122.33 854.434,1123.16C854.96,1124 855.378,1124.9 855.689,1125.86C856,1126.83 856.18,1127.85 856.229,1128.92C856.278,1129.99 856.157,1131.09 855.865,1132.22C855.822,1132.4 855.78,1132.53 855.737,1132.63C855.506,1133.14 855.187,1133.45 854.778,1133.58C854.37,1133.71 854.019,1133.63 853.726,1133.34C853.586,1133.2 853.447,1133.01 853.309,1132.76C853.172,1132.51 853.118,1132.21 853.148,1131.86C853.188,1131.25 853.139,1130.61 853.002,1129.96C852.865,1129.3 852.67,1128.66 852.416,1128.04C852.162,1127.42 851.86,1126.84 851.51,1126.29C851.16,1125.73 850.788,1125.26 850.393,1124.87C849.986,1124.47 849.568,1124.13 849.142,1123.88C848.715,1123.62 848.302,1123.47 847.905,1123.43C847.507,1123.39 847.14,1123.47 846.804,1123.69C846.468,1123.9 846.176,1124.28 845.928,1124.82C845.492,1125.78 845.237,1126.82 845.163,1127.91C845.089,1129.02 845.128,1130.14 845.281,1131.29C845.434,1132.44 845.672,1133.6 845.995,1134.78C846.318,1135.96 846.649,1137.12 846.987,1138.24C847.025,1138.36 847.046,1138.62 847.049,1139.02C847.053,1139.42 846.991,1139.76 846.863,1140.05C846.76,1140.27 846.641,1140.41 846.505,1140.47C846.121,1140.66 845.702,1140.83 845.247,1140.98C844.792,1141.13 844.332,1141.23 843.869,1141.27C843.405,1141.32 842.946,1141.27 842.491,1141.14C842.036,1141 841.618,1140.74 841.236,1140.36C840.956,1140.08 840.72,1139.77 840.529,1139.41C840.339,1139.06 840.201,1138.71 840.117,1138.37C840.032,1138.03 839.991,1137.7 839.994,1137.39C839.997,1137.08 840.041,1136.83 840.126,1136.64C840.246,1136.38 840.406,1136.17 840.606,1136.01C840.806,1135.85 841.031,1135.74 841.28,1135.65C841.529,1135.57 841.797,1135.51 842.084,1135.47C842.371,1135.43 842.651,1135.39 842.923,1135.36Z" style="fill:rgb(183,18,52);fill-rule:nonzero;"/>
            </g>
            <g transform="matrix(0.887413,0,0,0.511083,117.73,521.177)">
                <path d="M811.575,1020.75C811.575,1020.75 811.126,1155.6 946.425,1155.6C1081.72,1155.6 1081.28,1020.75 1081.28,1020.75" style="fill:none;stroke:rgb(254,208,0);stroke-width:11.34px;"/>
            </g>
            <g transform="matrix(1.00318,0,0,0.592525,314.45,261.288)">
                <path d="M595.588,1038.34L595.588,955.482L613.169,955.482L613.169,961.312L600.179,961.312L600.179,992.511L610.994,992.511L610.994,998.239L600.179,998.239L600.179,1038.34L595.588,1038.34Z" style="fill:rgb(183,18,52);fill-rule:nonzero;"/>
                <path d="M636.551,1039.36C633.288,1039.36 630.741,1038.29 628.908,1036.14C627.075,1033.99 625.786,1030.99 625.041,1027.14C624.296,1023.28 623.924,1018.87 623.924,1013.89L623.924,979.52C623.924,974.474 624.316,970.092 625.102,966.376C625.887,962.659 627.196,959.778 629.029,957.732C630.862,955.686 633.369,954.664 636.551,954.664C639.693,954.664 642.18,955.686 644.012,957.732C645.845,959.778 647.144,962.659 647.909,966.376C648.675,970.092 649.057,974.474 649.057,979.52L649.057,1013.99C649.057,1018.97 648.685,1023.35 647.94,1027.14C647.194,1030.92 645.916,1033.9 644.103,1036.09C642.291,1038.27 639.773,1039.36 636.551,1039.36ZM636.551,1033.12C638.686,1033.12 640.317,1032.39 641.445,1030.92C642.573,1029.45 643.348,1027.41 643.771,1024.78C644.194,1022.16 644.405,1019.11 644.405,1015.63L644.405,978.088C644.405,974.61 644.194,971.576 643.771,968.984C643.348,966.393 642.573,964.398 641.445,963C640.317,961.602 638.686,960.903 636.551,960.903C634.376,960.903 632.714,961.602 631.566,963C630.419,964.398 629.633,966.393 629.21,968.984C628.787,971.576 628.576,974.61 628.576,978.088L628.576,1015.63C628.576,1019.11 628.787,1022.16 629.21,1024.78C629.633,1027.41 630.419,1029.45 631.566,1030.92C632.714,1032.39 634.376,1033.12 636.551,1033.12Z" style="fill:rgb(183,18,52);fill-rule:nonzero;"/>
                <path d="M662.712,1038.34L662.712,955.482L673.768,955.482C676.829,955.482 679.236,956.317 680.988,957.988C682.74,959.659 683.999,962.08 684.764,965.251C685.529,968.422 685.912,972.189 685.912,976.554C685.912,979.622 685.711,982.521 685.308,985.248C684.905,987.976 684.22,990.295 683.254,992.204C682.287,994.114 680.918,995.375 679.145,995.989L686.637,1038.34L682.166,1038.34L674.977,997.626L667.303,997.626L667.303,1038.34L662.712,1038.34ZM667.303,991.897L673.526,991.897C675.581,991.897 677.172,991.318 678.299,990.158C679.427,988.999 680.233,987.294 680.716,985.044C681.2,982.793 681.441,979.963 681.441,976.554C681.441,971.439 680.918,967.62 679.87,965.097C678.823,962.574 676.749,961.312 673.647,961.312L667.303,961.312L667.303,991.897Z" style="fill:rgb(183,18,52);fill-rule:nonzero;"/>
            </g>
        </g>
    </g>
</svg>
