<?xml version="1.0" encoding="UTF-8" standalone="no"?>
<!DOCTYPE svg PUBLIC "-//W3C//DTD SVG 1.1//EN" "http://www.w3.org/Graphics/SVG/1.1/DTD/svg11.dtd">
<svg width="100%" height="100%" viewBox="0 0 1920 1920" version="1.1" xmlns="http://www.w3.org/2000/svg" xmlns:xlink="http://www.w3.org/1999/xlink" xml:space="preserve" xmlns:serif="http://www.serif.com/" style="fill-rule:evenodd;clip-rule:evenodd;stroke-linecap:round;stroke-linejoin:round;stroke-miterlimit:1.5;">
    <g transform="matrix(1,0,0,1,-4258.2,0)">
        <g id="Bridge-ocial-Icon" serif:id="Bridge ocial Icon" transform="matrix(1,0,0,1,4258.2,0)">
            <rect x="0" y="0" width="1920" height="1920" style="fill:none;"/>
            <clipPath id="_clip1">
                <rect x="0" y="0" width="1920" height="1920"/>
            </clipPath>
            <g clip-path="url(#_clip1)">
                <g transform="matrix(1,0,0,1,-2024.78,0)">
                    <rect x="2024.78" y="0" width="1920" height="1920" style="fill:rgb(59,167,191);"/>
                </g>
                <g transform="matrix(1.38243,0,0,1.38243,-3166.25,-367.131)">
                    <path d="M3944.78,0L3944.78,1920L2024.78,1920L2024.78,0L3944.78,0ZM2984.78,406.24C2679.15,406.24 2431.02,654.372 2431.02,960C2431.02,1265.63 2679.15,1513.76 2984.78,1513.76C3290.41,1513.76 3538.54,1265.63 3538.54,960C3538.54,654.372 3290.41,406.24 2984.78,406.24Z" style="fill:rgb(254,208,0);"/>
                </g>
                <g transform="matrix(0.988799,0,0,0.988799,-64.2194,-28.6593)">
                    <g transform="matrix(1.20446,0,0,1.20446,-2559.22,-140.587)">
                        <path d="M2984.78,302.023C3347.93,302.023 3642.76,596.853 3642.76,960C3642.76,1323.15 3347.93,1617.98 2984.78,1617.98C2621.63,1617.98 2326.8,1323.15 2326.8,960C2326.8,596.853 2621.63,302.023 2984.78,302.023ZM2984.78,406.24C2679.15,406.24 2431.02,654.372 2431.02,960C2431.02,1265.63 2679.15,1513.76 2984.78,1513.76C3290.41,1513.76 3538.54,1265.63 3538.54,960C3538.54,654.372 3290.41,406.24 2984.78,406.24Z" style="fill:rgb(254,208,0);"/>
                    </g>
                    <g transform="matrix(1.65887,0,0,1.65887,-564.972,-630.608)">
                        <g transform="matrix(0.53272,0.846292,-2.00018,1.25907,1828.54,-2665.96)">
                            <path d="M2897.19,987.779L2858.48,1011.98C2858.48,1011.98 2795.37,1136.03 2779.51,1169.53C2759.12,1212.58 2736.22,1252.06 2736.22,1252.06L2825.98,1206.84C2825.98,1206.84 2840.52,1164.33 2845.2,1142.26C2853.74,1102.06 2897.19,987.779 2897.19,987.779Z" style="fill:rgb(47,46,64);"/>
                        </g>
                        <g transform="matrix(1,0,0,1,-2024.78,0)">
                            <path d="M2866.62,567.689C2866.62,567.689 3228.92,1081.22 3406.67,1025.91" style="fill:none;stroke:rgb(183,18,52);stroke-width:12.7px;"/>
                        </g>
                        <g transform="matrix(1,0,0,1,-2024.78,0)">
                            <path d="M3065.1,725.314L3065.1,1193.35" style="fill:none;stroke:rgb(134,13,33);stroke-width:5.08px;"/>
                        </g>
                        <g transform="matrix(1,0,0,1.18543,-2079.16,-209.845)">
                            <path d="M3065.1,725.314L3065.1,1193.35" style="fill:none;stroke:rgb(134,13,33);stroke-width:4.63px;"/>
                        </g>
                        <g transform="matrix(1,0,0,0.798332,-1970.4,210.204)">
                            <path d="M3065.1,742.48L3065.1,1193.35" style="fill:none;stroke:rgb(134,13,33);stroke-width:5.61px;"/>
                        </g>
                        <g transform="matrix(1,0,0,0.584989,-1916.02,448.728)">
                            <path d="M3065.1,725.314L3065.1,1193.35" style="fill:none;stroke:rgb(134,13,33);stroke-width:6.2px;"/>
                        </g>
                        <g transform="matrix(1,0,0,0.433149,-1872.99,608.059)">
                            <path d="M3065.1,725.314L3065.1,1193.35" style="fill:none;stroke:rgb(134,13,33);stroke-width:6.59px;"/>
                        </g>
                        <g transform="matrix(1,0,0,0.306184,-1829.95,742.655)">
                            <path d="M3065.1,725.314L3065.1,1193.35" style="fill:none;stroke:rgb(134,13,33);stroke-width:6.87px;"/>
                        </g>
                        <g transform="matrix(1,0,0,0.189039,-1786.92,861.772)">
                            <path d="M3065.1,725.314L3065.1,1193.35" style="fill:none;stroke:rgb(134,13,33);stroke-width:7.06px;"/>
                        </g>
                        <g transform="matrix(1,0,0,1.953,-2151.56,-1123.28)">
                            <path d="M3544.86,1102.34L3047.64,1211.02L3048.28,1235.86L3540.63,1108.23L3544.86,1102.34Z" style="fill:rgb(183,18,52);"/>
                        </g>
                        <g transform="matrix(1,0,0,1,-2059.05,-24.4182)">
                            <path d="M2979.13,1269.56L2885.28,1252.1L2885.28,1281.2L2979.13,1302.94L2979.13,1269.56Z" style="fill:rgb(134,13,33);"/>
                        </g>
                        <g transform="matrix(1,0,0,1,-2024.78,0)">
                            <path d="M2956.28,548.902C2956.28,548.902 3249.57,1078.51 3406.67,1025.91" style="fill:none;stroke:rgb(183,18,52);stroke-width:12.7px;"/>
                        </g>
                        <g transform="matrix(1,0,0,15.7337,-2024.78,-8364.16)">
                            <rect x="2829.5" y="567.689" width="22.823" height="52.641" style="fill:rgb(134,13,33);"/>
                        </g>
                        <g transform="matrix(0.14292,0,0,1,499.205,0)">
                            <path d="M3104.56,536.998L2944.87,519.545L2944.87,1429.84L3104.56,1433.05L3104.56,536.998Z" style="fill:rgb(232,24,69);"/>
                        </g>
                        <g transform="matrix(1,0,0,1,-2024.78,0)">
                            <path d="M2923.52,1429.84C2923.52,1429.71 2923.55,1446.34 2923.55,1446.21L2918.91,1094.83C2918.72,1080.06 2906.18,1072.71 2897.29,1072.32L2854.41,1070.43C2845.65,1070.04 2832.88,1076.32 2832.88,1091.24L2832.88,1445.98C2832.88,1446.19 2832.88,1391.29 2832.88,1391.49L2806.6,1377.14L2806.6,546.813L2944.87,519.545L2944.87,1433.05L2923.52,1429.84ZM2931.55,591.408C2931.55,577.396 2919.5,568.055 2906.88,569.384L2857.55,574.581C2844.64,575.941 2832.88,587.624 2832.88,601.802L2832.88,652.086C2832.88,666.098 2844.93,675.438 2857.55,674.11L2906.88,668.913C2919.79,667.553 2931.55,655.869 2931.55,641.692L2931.55,591.408ZM2931.36,744.285C2931.36,730.977 2920.13,720.263 2906.74,720.979L2857.5,723.61C2843.99,724.332 2832.88,736.115 2832.88,749.548L2832.88,803.555C2832.88,816.863 2844.11,827.577 2857.5,826.861L2906.74,824.23C2920.25,823.508 2931.36,811.725 2931.36,798.292L2931.36,744.285ZM2923.52,901.665C2923.32,890.859 2915.12,879.543 2902.87,879.689L2862.49,880.167C2850.29,880.312 2842.22,891.72 2842.08,902.501L2840.99,989.084C2840.85,1000.33 2849.02,1012.39 2861.85,1012.36L2904.26,1012.25C2917.16,1012.21 2925.31,1000.04 2925.11,988.732L2923.52,901.665Z" style="fill:rgb(183,18,52);"/>
                        </g>
                    </g>
                    <g transform="matrix(1.20446,0,0,1.20446,-2559.22,-140.587)">
                        <path d="M3633.68,850.545C3639.65,886.146 3642.76,922.713 3642.76,960C3642.76,1323.15 3347.93,1617.98 2984.78,1617.98C2621.63,1617.98 2326.8,1323.15 2326.8,960C2326.8,922.713 2329.91,886.146 2335.88,850.545L2441.86,850.545C2434.75,885.932 2431.02,922.534 2431.02,960C2431.02,1265.63 2679.15,1513.76 2984.78,1513.76C3290.41,1513.76 3538.54,1265.63 3538.54,960C3538.54,922.534 3534.81,885.932 3527.71,850.545L3633.68,850.545Z" style="fill:rgb(254,208,0);"/>
                    </g>
                </g>
                <g transform="matrix(0.873814,1.38816,-3.28087,2.06523,1600.46,-4695.33)">
                    <path d="M2892.58,999.115L2843.97,1021.38L2730.04,1271.33L2809.68,1264.01L2892.58,999.115Z" style="fill:rgb(47,46,64);"/>
                </g>
                <g transform="matrix(1.64029,0,0,3.20348,-5132.17,-2246.32)">
                    <path d="M3530.92,1125.43L3001.63,1228.35L3016,1238.13L3557.19,1130.23L3530.92,1125.43Z" style="fill:rgb(47,46,64);"/>
                </g>
                <g transform="matrix(1,0,0,1.07498,0,-202.826)">
                    <g transform="matrix(-2.16592,0,0,1.87101,7146.08,-651.25)">
                        <path d="M3065.1,725.314C3066.41,932.072 3063.8,1151.97 3061.38,1213.64" style="fill:none;stroke:rgb(134,13,33);stroke-width:3.99px;"/>
                    </g>
                    <g transform="matrix(-2.36805,0,0,2.19828,7893.63,-1060.64)">
                        <path d="M3065.1,725.314L3065.1,1193.35" style="fill:none;stroke:rgb(134,13,33);stroke-width:3.52px;"/>
                    </g>
                    <g transform="matrix(-2.36805,0,0,1.87233,7636.08,-545.663)">
                        <path d="M3065.1,742.48L3065.1,1193.35" style="fill:none;stroke:rgb(134,13,33);stroke-width:3.79px;"/>
                    </g>
                    <g transform="matrix(-2.36805,0,0,1.68419,7507.31,-250.543)">
                        <path d="M3065.1,725.314L3065.1,1193.35" style="fill:none;stroke:rgb(134,13,33);stroke-width:3.95px;"/>
                    </g>
                    <g transform="matrix(-2.36805,0,0,1.62769,7405.4,-119.332)">
                        <path d="M3065.1,725.314L3065.1,1193.35" style="fill:none;stroke:rgb(134,13,33);stroke-width:4px;"/>
                    </g>
                    <g transform="matrix(-2.36805,0,0,1.56109,7300.62,14.5605)">
                        <path d="M3065.1,725.314L3065.1,1193.35" style="fill:none;stroke:rgb(134,13,33);stroke-width:4.06px;"/>
                    </g>
                </g>
                <g transform="matrix(1.64029,0,0,3.20348,-4967.67,-2145.78)">
                    <path d="M3546.78,1101.68L2964.66,1234.38L2965.3,1262.54L3545.52,1126.94L3546.78,1101.68Z" style="fill:rgb(183,18,52);"/>
                </g>
                <g transform="matrix(1.64029,0,0,1.64029,-622.863,-652.203)">
                    <g transform="matrix(-1,0,0,1,3786.4,-2.78311)">
                        <path d="M2882.51,547.895C2882.51,547.895 3316.09,1217.35 3502.21,1240.28" style="fill:none;stroke:rgb(232,24,69);stroke-width:12.7px;"/>
                    </g>
                    <g transform="matrix(-1,0,0,1,3694.02,13.6279)">
                        <path d="M2882.51,547.895C2882.51,547.895 3228.65,1083.64 3538.11,1136.45" style="fill:none;stroke:rgb(232,24,69);stroke-width:12.7px;"/>
                    </g>
                </g>
            </g>
        </g>
    </g>
</svg>
